<?xml version="1.0" standalone="no"?>
<svg xmlns="http://www.w3.org/2000/svg" width="500" height="500"><defs><clipPath id="clip-path-dot-color"><circle cx="33.5" cy="123.5" r="4.5" transform="rotate(0,33.5,123.5)"/><circle cx="33.5" cy="132.5" r="4.5" transform="rotate(0,33.5,132.5)"/><circle cx="33.5" cy="150.5" r="4.5" transform="rotate(0,33.5,150.5)"/><circle cx="33.5" cy="159.5" r="4.5" transform="rotate(0,33.5,159.5)"/><circle cx="33.5" cy="177.5" r="4.5" transform="rotate(0,33.5,177.5)"/><circle cx="33.5" cy="186.5" r="4.5" transform="rotate(0,33.5,186.5)"/><circle cx="33.5" cy="195.5" r="4.5" transform="rotate(0,33.5,195.5)"/><circle cx="33.5" cy="204.5" r="4.5" transform="rotate(0,33.5,204.5)"/><circle cx="33.5" cy="213.5" r="4.5" transform="rotate(0,33.5,213.5)"/><circle cx="33.5" cy="267.5" r="4.5" transform="rotate(0,33.5,267.5)"/><circle cx="33.5" cy="285.5" r="4.5" transform="rotate(0,33.5,285.5)"/><circle cx="33.5" cy="294.5" r="4.5" transform="rotate(0,33.5,294.5)"/><circle cx="33.5" cy="303.5" r="4.5" transform="rotate(0,33.5,303.5)"/><circle cx="33.5" cy="312.5" r="4.5" transform="rotate(0,33.5,312.5)"/><circle cx="33.5" cy="348.5" r="4.5" transform="rotate(0,33.5,348.5)"/><circle cx="33.5" cy="357.5" r="4.5" transform="rotate(0,33.5,357.5)"/><circle cx="33.5" cy="393.5" r="4.5" transform="rotate(0,33.5,393.5)"/><circle cx="42.5" cy="105.5" r="4.5" transform="rotate(0,42.5,105.5)"/><circle cx="42.5" cy="132.5" r="4.5" transform="rotate(0,42.5,132.5)"/><circle cx="42.5" cy="159.5" r="4.5" transform="rotate(0,42.5,159.5)"/><circle cx="42.5" cy="168.5" r="4.5" transform="rotate(0,42.5,168.5)"/><circle cx="42.5" cy="195.5" r="4.5" transform="rotate(0,42.5,195.5)"/><circle cx="42.5" cy="204.5" r="4.5" transform="rotate(0,42.5,204.5)"/><circle cx="42.5" cy="213.5" r="4.5" transform="rotate(0,42.5,213.5)"/><circle cx="42.5" cy="231.5" r="4.5" transform="rotate(0,42.5,231.5)"/><circle cx="42.5" cy="240.5" r="4.5" transform="rotate(0,42.5,240.5)"/><circle cx="42.5" cy="267.5" r="4.5" transform="rotate(0,42.5,267.5)"/><circle cx="42.5" cy="276.5" r="4.5" transform="rotate(0,42.5,276.5)"/><circle cx="42.5" cy="294.5" r="4.5" transform="rotate(0,42.5,294.5)"/><circle cx="42.5" cy="339.5" r="4.5" transform="rotate(0,42.5,339.5)"/><circle cx="42.5" cy="357.5" r="4.5" transform="rotate(0,42.5,357.5)"/><circle cx="42.5" cy="366.5" r="4.5" transform="rotate(0,42.5,366.5)"/><circle cx="42.5" cy="375.5" r="4.5" transform="rotate(0,42.5,375.5)"/><circle cx="42.5" cy="384.5" r="4.5" transform="rotate(0,42.5,384.5)"/><circle cx="42.5" cy="393.5" r="4.5" transform="rotate(0,42.5,393.5)"/><circle cx="51.5" cy="105.5" r="4.5" transform="rotate(0,51.5,105.5)"/><circle cx="51.5" cy="114.5" r="4.5" transform="rotate(0,51.5,114.5)"/><circle cx="51.5" cy="159.5" r="4.5" transform="rotate(0,51.5,159.5)"/><circle cx="51.5" cy="177.5" r="4.5" transform="rotate(0,51.5,177.5)"/><circle cx="51.5" cy="186.5" r="4.5" transform="rotate(0,51.5,186.5)"/><circle cx="51.5" cy="195.5" r="4.5" transform="rotate(0,51.5,195.5)"/><circle cx="51.5" cy="222.5" r="4.5" transform="rotate(0,51.5,222.5)"/><circle cx="51.5" cy="231.5" r="4.5" transform="rotate(0,51.5,231.5)"/><circle cx="51.5" cy="249.5" r="4.5" transform="rotate(0,51.5,249.5)"/><circle cx="51.5" cy="267.5" r="4.5" transform="rotate(0,51.5,267.5)"/><circle cx="51.5" cy="276.5" r="4.5" transform="rotate(0,51.5,276.5)"/><circle cx="51.5" cy="312.5" r="4.5" transform="rotate(0,51.5,312.5)"/><circle cx="51.5" cy="321.5" r="4.5" transform="rotate(0,51.5,321.5)"/><circle cx="51.5" cy="339.5" r="4.5" transform="rotate(0,51.5,339.5)"/><circle cx="51.5" cy="348.5" r="4.5" transform="rotate(0,51.5,348.5)"/><circle cx="51.5" cy="357.5" r="4.5" transform="rotate(0,51.5,357.5)"/><circle cx="51.5" cy="366.5" r="4.5" transform="rotate(0,51.5,366.5)"/><circle cx="51.5" cy="384.5" r="4.5" transform="rotate(0,51.5,384.5)"/><circle cx="51.5" cy="393.5" r="4.5" transform="rotate(0,51.5,393.5)"/><circle cx="60.5" cy="114.5" r="4.5" transform="rotate(0,60.5,114.5)"/><circle cx="60.5" cy="132.5" r="4.5" transform="rotate(0,60.5,132.5)"/><circle cx="60.5" cy="168.5" r="4.5" transform="rotate(0,60.5,168.5)"/><circle cx="60.5" cy="177.5" r="4.5" transform="rotate(0,60.5,177.5)"/><circle cx="60.5" cy="231.5" r="4.5" transform="rotate(0,60.5,231.5)"/><circle cx="60.5" cy="267.5" r="4.5" transform="rotate(0,60.5,267.5)"/><circle cx="60.5" cy="303.5" r="4.5" transform="rotate(0,60.5,303.5)"/><circle cx="60.5" cy="312.5" r="4.5" transform="rotate(0,60.5,312.5)"/><circle cx="60.5" cy="348.5" r="4.5" transform="rotate(0,60.5,348.5)"/><circle cx="60.5" cy="357.5" r="4.5" transform="rotate(0,60.5,357.5)"/><circle cx="60.5" cy="366.5" r="4.5" transform="rotate(0,60.5,366.5)"/><circle cx="60.5" cy="384.5" r="4.5" transform="rotate(0,60.5,384.5)"/><circle cx="69.5" cy="159.5" r="4.5" transform="rotate(0,69.5,159.5)"/><circle cx="69.5" cy="177.5" r="4.5" transform="rotate(0,69.5,177.5)"/><circle cx="69.5" cy="231.5" r="4.5" transform="rotate(0,69.5,231.5)"/><circle cx="69.5" cy="240.5" r="4.5" transform="rotate(0,69.5,240.5)"/><circle cx="69.5" cy="249.5" r="4.5" transform="rotate(0,69.5,249.5)"/><circle cx="69.5" cy="258.5" r="4.5" transform="rotate(0,69.5,258.5)"/><circle cx="69.5" cy="267.5" r="4.5" transform="rotate(0,69.5,267.5)"/><circle cx="69.5" cy="276.5" r="4.5" transform="rotate(0,69.5,276.5)"/><circle cx="69.5" cy="312.5" r="4.5" transform="rotate(0,69.5,312.5)"/><circle cx="69.5" cy="321.5" r="4.5" transform="rotate(0,69.5,321.5)"/><circle cx="69.5" cy="330.5" r="4.5" transform="rotate(0,69.5,330.5)"/><circle cx="69.5" cy="357.5" r="4.5" transform="rotate(0,69.5,357.5)"/><circle cx="78.5" cy="114.5" r="4.5" transform="rotate(0,78.5,114.5)"/><circle cx="78.5" cy="123.5" r="4.5" transform="rotate(0,78.5,123.5)"/><circle cx="78.5" cy="132.5" r="4.5" transform="rotate(0,78.5,132.5)"/><circle cx="78.5" cy="141.5" r="4.5" transform="rotate(0,78.5,141.5)"/><circle cx="78.5" cy="159.5" r="4.5" transform="rotate(0,78.5,159.5)"/><circle cx="78.5" cy="168.5" r="4.5" transform="rotate(0,78.5,168.5)"/><circle cx="78.5" cy="177.5" r="4.5" transform="rotate(0,78.5,177.5)"/><circle cx="78.5" cy="222.5" r="4.5" transform="rotate(0,78.5,222.5)"/><circle cx="78.5" cy="231.5" r="4.5" transform="rotate(0,78.5,231.5)"/><circle cx="78.5" cy="267.5" r="4.5" transform="rotate(0,78.5,267.5)"/><circle cx="78.5" cy="276.5" r="4.5" transform="rotate(0,78.5,276.5)"/><circle cx="78.5" cy="285.5" r="4.5" transform="rotate(0,78.5,285.5)"/><circle cx="78.5" cy="294.5" r="4.5" transform="rotate(0,78.5,294.5)"/><circle cx="78.5" cy="312.5" r="4.5" transform="rotate(0,78.5,312.5)"/><circle cx="78.5" cy="348.5" r="4.5" transform="rotate(0,78.5,348.5)"/><circle cx="78.5" cy="357.5" r="4.5" transform="rotate(0,78.5,357.5)"/><circle cx="78.5" cy="366.5" r="4.5" transform="rotate(0,78.5,366.5)"/><circle cx="78.5" cy="375.5" r="4.5" transform="rotate(0,78.5,375.5)"/><circle cx="87.5" cy="105.5" r="4.5" transform="rotate(0,87.5,105.5)"/><circle cx="87.5" cy="123.5" r="4.5" transform="rotate(0,87.5,123.5)"/><circle cx="87.5" cy="141.5" r="4.5" transform="rotate(0,87.5,141.5)"/><circle cx="87.5" cy="159.5" r="4.5" transform="rotate(0,87.5,159.5)"/><circle cx="87.5" cy="177.5" r="4.5" transform="rotate(0,87.5,177.5)"/><circle cx="87.5" cy="195.5" r="4.5" transform="rotate(0,87.5,195.5)"/><circle cx="87.5" cy="213.5" r="4.5" transform="rotate(0,87.5,213.5)"/><circle cx="87.5" cy="231.5" r="4.5" transform="rotate(0,87.5,231.5)"/><circle cx="87.5" cy="249.5" r="4.5" transform="rotate(0,87.5,249.5)"/><circle cx="87.5" cy="267.5" r="4.5" transform="rotate(0,87.5,267.5)"/><circle cx="87.5" cy="285.5" r="4.5" transform="rotate(0,87.5,285.5)"/><circle cx="87.5" cy="303.5" r="4.5" transform="rotate(0,87.5,303.5)"/><circle cx="87.5" cy="321.5" r="4.5" transform="rotate(0,87.5,321.5)"/><circle cx="87.5" cy="339.5" r="4.5" transform="rotate(0,87.5,339.5)"/><circle cx="87.5" cy="357.5" r="4.5" transform="rotate(0,87.5,357.5)"/><circle cx="87.5" cy="375.5" r="4.5" transform="rotate(0,87.5,375.5)"/><circle cx="87.5" cy="393.5" r="4.5" transform="rotate(0,87.5,393.5)"/><circle cx="96.5" cy="114.5" r="4.5" transform="rotate(0,96.5,114.5)"/><circle cx="96.5" cy="159.5" r="4.5" transform="rotate(0,96.5,159.5)"/><circle cx="96.5" cy="168.5" r="4.5" transform="rotate(0,96.5,168.5)"/><circle cx="96.5" cy="186.5" r="4.5" transform="rotate(0,96.5,186.5)"/><circle cx="96.5" cy="195.5" r="4.5" transform="rotate(0,96.5,195.5)"/><circle cx="96.5" cy="204.5" r="4.5" transform="rotate(0,96.5,204.5)"/><circle cx="96.5" cy="231.5" r="4.5" transform="rotate(0,96.5,231.5)"/><circle cx="96.5" cy="267.5" r="4.5" transform="rotate(0,96.5,267.5)"/><circle cx="96.5" cy="276.5" r="4.5" transform="rotate(0,96.5,276.5)"/><circle cx="96.5" cy="303.5" r="4.5" transform="rotate(0,96.5,303.5)"/><circle cx="96.5" cy="321.5" r="4.5" transform="rotate(0,96.5,321.5)"/><circle cx="96.5" cy="330.5" r="4.5" transform="rotate(0,96.5,330.5)"/><circle cx="96.5" cy="375.5" r="4.5" transform="rotate(0,96.5,375.5)"/><circle cx="96.5" cy="384.5" r="4.5" transform="rotate(0,96.5,384.5)"/><circle cx="96.5" cy="393.5" r="4.5" transform="rotate(0,96.5,393.5)"/><circle cx="105.5" cy="42.5" r="4.5" transform="rotate(0,105.5,42.5)"/><circle cx="105.5" cy="51.5" r="4.5" transform="rotate(0,105.5,51.5)"/><circle cx="105.5" cy="60.5" r="4.5" transform="rotate(0,105.5,60.5)"/><circle cx="105.5" cy="78.5" r="4.5" transform="rotate(0,105.5,78.5)"/><circle cx="105.5" cy="87.5" r="4.5" transform="rotate(0,105.5,87.5)"/><circle cx="105.5" cy="123.5" r="4.5" transform="rotate(0,105.5,123.5)"/><circle cx="105.5" cy="132.5" r="4.5" transform="rotate(0,105.5,132.5)"/><circle cx="105.5" cy="186.5" r="4.5" transform="rotate(0,105.5,186.5)"/><circle cx="105.5" cy="195.5" r="4.5" transform="rotate(0,105.5,195.5)"/><circle cx="105.5" cy="213.5" r="4.5" transform="rotate(0,105.5,213.5)"/><circle cx="105.5" cy="231.5" r="4.5" transform="rotate(0,105.5,231.5)"/><circle cx="105.5" cy="240.5" r="4.5" transform="rotate(0,105.5,240.5)"/><circle cx="105.5" cy="249.5" r="4.5" transform="rotate(0,105.5,249.5)"/><circle cx="105.5" cy="258.5" r="4.5" transform="rotate(0,105.5,258.5)"/><circle cx="105.5" cy="267.5" r="4.5" transform="rotate(0,105.5,267.5)"/><circle cx="105.5" cy="276.5" r="4.5" transform="rotate(0,105.5,276.5)"/><circle cx="105.5" cy="285.5" r="4.5" transform="rotate(0,105.5,285.5)"/><circle cx="105.5" cy="294.5" r="4.5" transform="rotate(0,105.5,294.5)"/><circle cx="105.5" cy="321.5" r="4.5" transform="rotate(0,105.5,321.5)"/><circle cx="105.5" cy="330.5" r="4.5" transform="rotate(0,105.5,330.5)"/><circle cx="105.5" cy="339.5" r="4.5" transform="rotate(0,105.5,339.5)"/><circle cx="105.5" cy="348.5" r="4.5" transform="rotate(0,105.5,348.5)"/><circle cx="105.5" cy="366.5" r="4.5" transform="rotate(0,105.5,366.5)"/><circle cx="105.5" cy="447.5" r="4.5" transform="rotate(0,105.5,447.5)"/><circle cx="105.5" cy="456.5" r="4.5" transform="rotate(0,105.5,456.5)"/><circle cx="114.5" cy="33.5" r="4.5" transform="rotate(0,114.5,33.5)"/><circle cx="114.5" cy="42.5" r="4.5" transform="rotate(0,114.5,42.5)"/><circle cx="114.5" cy="123.5" r="4.5" transform="rotate(0,114.5,123.5)"/><circle cx="114.5" cy="159.5" r="4.5" transform="rotate(0,114.5,159.5)"/><circle cx="114.5" cy="177.5" r="4.5" transform="rotate(0,114.5,177.5)"/><circle cx="114.5" cy="186.5" r="4.5" transform="rotate(0,114.5,186.5)"/><circle cx="114.5" cy="195.5" r="4.5" transform="rotate(0,114.5,195.5)"/><circle cx="114.5" cy="213.5" r="4.5" transform="rotate(0,114.5,213.5)"/><circle cx="114.5" cy="222.5" r="4.5" transform="rotate(0,114.5,222.5)"/><circle cx="114.5" cy="240.5" r="4.5" transform="rotate(0,114.5,240.5)"/><circle cx="114.5" cy="258.5" r="4.5" transform="rotate(0,114.5,258.5)"/><circle cx="114.5" cy="267.5" r="4.5" transform="rotate(0,114.5,267.5)"/><circle cx="114.5" cy="303.5" r="4.5" transform="rotate(0,114.5,303.5)"/><circle cx="114.5" cy="321.5" r="4.5" transform="rotate(0,114.5,321.5)"/><circle cx="114.5" cy="348.5" r="4.5" transform="rotate(0,114.5,348.5)"/><circle cx="114.5" cy="366.5" r="4.5" transform="rotate(0,114.5,366.5)"/><circle cx="114.5" cy="411.5" r="4.5" transform="rotate(0,114.5,411.5)"/><circle cx="114.5" cy="447.5" r="4.5" transform="rotate(0,114.5,447.5)"/><circle cx="123.5" cy="33.5" r="4.5" transform="rotate(0,123.5,33.5)"/><circle cx="123.5" cy="42.5" r="4.5" transform="rotate(0,123.5,42.5)"/><circle cx="123.5" cy="69.5" r="4.5" transform="rotate(0,123.5,69.5)"/><circle cx="123.5" cy="78.5" r="4.5" transform="rotate(0,123.5,78.5)"/><circle cx="123.5" cy="87.5" r="4.5" transform="rotate(0,123.5,87.5)"/><circle cx="123.5" cy="123.5" r="4.5" transform="rotate(0,123.5,123.5)"/><circle cx="123.5" cy="186.5" r="4.5" transform="rotate(0,123.5,186.5)"/><circle cx="123.5" cy="204.5" r="4.5" transform="rotate(0,123.5,204.5)"/><circle cx="123.5" cy="213.5" r="4.5" transform="rotate(0,123.5,213.5)"/><circle cx="123.5" cy="222.5" r="4.5" transform="rotate(0,123.5,222.5)"/><circle cx="123.5" cy="231.5" r="4.5" transform="rotate(0,123.5,231.5)"/><circle cx="123.5" cy="258.5" r="4.5" transform="rotate(0,123.5,258.5)"/><circle cx="123.5" cy="285.5" r="4.5" transform="rotate(0,123.5,285.5)"/><circle cx="123.5" cy="303.5" r="4.5" transform="rotate(0,123.5,303.5)"/><circle cx="123.5" cy="312.5" r="4.5" transform="rotate(0,123.5,312.5)"/><circle cx="123.5" cy="339.5" r="4.5" transform="rotate(0,123.5,339.5)"/><circle cx="123.5" cy="375.5" r="4.5" transform="rotate(0,123.5,375.5)"/><circle cx="123.5" cy="384.5" r="4.5" transform="rotate(0,123.5,384.5)"/><circle cx="123.5" cy="402.5" r="4.5" transform="rotate(0,123.5,402.5)"/><circle cx="123.5" cy="411.5" r="4.5" transform="rotate(0,123.5,411.5)"/><circle cx="123.5" cy="420.5" r="4.5" transform="rotate(0,123.5,420.5)"/><circle cx="123.5" cy="447.5" r="4.5" transform="rotate(0,123.5,447.5)"/><circle cx="132.5" cy="42.5" r="4.5" transform="rotate(0,132.5,42.5)"/><circle cx="132.5" cy="51.5" r="4.5" transform="rotate(0,132.5,51.5)"/><circle cx="132.5" cy="60.5" r="4.5" transform="rotate(0,132.5,60.5)"/><circle cx="132.5" cy="96.5" r="4.5" transform="rotate(0,132.5,96.5)"/><circle cx="132.5" cy="105.5" r="4.5" transform="rotate(0,132.5,105.5)"/><circle cx="132.5" cy="114.5" r="4.5" transform="rotate(0,132.5,114.5)"/><circle cx="132.5" cy="123.5" r="4.5" transform="rotate(0,132.5,123.5)"/><circle cx="132.5" cy="141.5" r="4.5" transform="rotate(0,132.5,141.5)"/><circle cx="132.5" cy="159.5" r="4.5" transform="rotate(0,132.5,159.5)"/><circle cx="132.5" cy="168.5" r="4.5" transform="rotate(0,132.5,168.5)"/><circle cx="132.5" cy="204.5" r="4.5" transform="rotate(0,132.5,204.5)"/><circle cx="132.5" cy="213.5" r="4.5" transform="rotate(0,132.5,213.5)"/><circle cx="132.5" cy="240.5" r="4.5" transform="rotate(0,132.5,240.5)"/><circle cx="132.5" cy="258.5" r="4.5" transform="rotate(0,132.5,258.5)"/><circle cx="132.5" cy="276.5" r="4.5" transform="rotate(0,132.5,276.5)"/><circle cx="132.5" cy="285.5" r="4.5" transform="rotate(0,132.5,285.5)"/><circle cx="132.5" cy="294.5" r="4.5" transform="rotate(0,132.5,294.5)"/><circle cx="132.5" cy="303.5" r="4.5" transform="rotate(0,132.5,303.5)"/><circle cx="132.5" cy="321.5" r="4.5" transform="rotate(0,132.5,321.5)"/><circle cx="132.5" cy="330.5" r="4.5" transform="rotate(0,132.5,330.5)"/><circle cx="132.5" cy="339.5" r="4.5" transform="rotate(0,132.5,339.5)"/><circle cx="132.5" cy="357.5" r="4.5" transform="rotate(0,132.5,357.5)"/><circle cx="132.5" cy="375.5" r="4.5" transform="rotate(0,132.5,375.5)"/><circle cx="132.5" cy="384.5" r="4.5" transform="rotate(0,132.5,384.5)"/><circle cx="132.5" cy="393.5" r="4.5" transform="rotate(0,132.5,393.5)"/><circle cx="132.5" cy="402.5" r="4.5" transform="rotate(0,132.5,402.5)"/><circle cx="132.5" cy="429.5" r="4.5" transform="rotate(0,132.5,429.5)"/><circle cx="132.5" cy="447.5" r="4.5" transform="rotate(0,132.5,447.5)"/><circle cx="132.5" cy="456.5" r="4.5" transform="rotate(0,132.5,456.5)"/><circle cx="132.5" cy="465.5" r="4.5" transform="rotate(0,132.5,465.5)"/><circle cx="141.5" cy="42.5" r="4.5" transform="rotate(0,141.5,42.5)"/><circle cx="141.5" cy="51.5" r="4.5" transform="rotate(0,141.5,51.5)"/><circle cx="141.5" cy="60.5" r="4.5" transform="rotate(0,141.5,60.5)"/><circle cx="141.5" cy="69.5" r="4.5" transform="rotate(0,141.5,69.5)"/><circle cx="141.5" cy="78.5" r="4.5" transform="rotate(0,141.5,78.5)"/><circle cx="141.5" cy="87.5" r="4.5" transform="rotate(0,141.5,87.5)"/><circle cx="141.5" cy="114.5" r="4.5" transform="rotate(0,141.5,114.5)"/><circle cx="141.5" cy="141.5" r="4.5" transform="rotate(0,141.5,141.5)"/><circle cx="141.5" cy="186.5" r="4.5" transform="rotate(0,141.5,186.5)"/><circle cx="141.5" cy="204.5" r="4.5" transform="rotate(0,141.5,204.5)"/><circle cx="141.5" cy="240.5" r="4.5" transform="rotate(0,141.5,240.5)"/><circle cx="141.5" cy="249.5" r="4.5" transform="rotate(0,141.5,249.5)"/><circle cx="141.5" cy="294.5" r="4.5" transform="rotate(0,141.5,294.5)"/><circle cx="141.5" cy="303.5" r="4.5" transform="rotate(0,141.5,303.5)"/><circle cx="141.5" cy="330.5" r="4.5" transform="rotate(0,141.5,330.5)"/><circle cx="141.5" cy="339.5" r="4.5" transform="rotate(0,141.5,339.5)"/><circle cx="141.5" cy="357.5" r="4.5" transform="rotate(0,141.5,357.5)"/><circle cx="141.5" cy="366.5" r="4.5" transform="rotate(0,141.5,366.5)"/><circle cx="141.5" cy="393.5" r="4.5" transform="rotate(0,141.5,393.5)"/><circle cx="141.5" cy="420.5" r="4.5" transform="rotate(0,141.5,420.5)"/><circle cx="141.5" cy="447.5" r="4.5" transform="rotate(0,141.5,447.5)"/><circle cx="150.5" cy="33.5" r="4.5" transform="rotate(0,150.5,33.5)"/><circle cx="150.5" cy="60.5" r="4.5" transform="rotate(0,150.5,60.5)"/><circle cx="150.5" cy="69.5" r="4.5" transform="rotate(0,150.5,69.5)"/><circle cx="150.5" cy="78.5" r="4.5" transform="rotate(0,150.5,78.5)"/><circle cx="150.5" cy="105.5" r="4.5" transform="rotate(0,150.5,105.5)"/><circle cx="150.5" cy="123.5" r="4.5" transform="rotate(0,150.5,123.5)"/><circle cx="150.5" cy="132.5" r="4.5" transform="rotate(0,150.5,132.5)"/><circle cx="150.5" cy="168.5" r="4.5" transform="rotate(0,150.5,168.5)"/><circle cx="150.5" cy="186.5" r="4.5" transform="rotate(0,150.5,186.5)"/><circle cx="150.5" cy="195.5" r="4.5" transform="rotate(0,150.5,195.5)"/><circle cx="150.5" cy="204.5" r="4.5" transform="rotate(0,150.5,204.5)"/><circle cx="150.5" cy="213.5" r="4.5" transform="rotate(0,150.5,213.5)"/><circle cx="150.5" cy="240.5" r="4.5" transform="rotate(0,150.5,240.5)"/><circle cx="150.5" cy="258.5" r="4.5" transform="rotate(0,150.5,258.5)"/><circle cx="150.5" cy="267.5" r="4.5" transform="rotate(0,150.5,267.5)"/><circle cx="150.5" cy="276.5" r="4.5" transform="rotate(0,150.5,276.5)"/><circle cx="150.5" cy="321.5" r="4.5" transform="rotate(0,150.5,321.5)"/><circle cx="150.5" cy="330.5" r="4.5" transform="rotate(0,150.5,330.5)"/><circle cx="150.5" cy="348.5" r="4.5" transform="rotate(0,150.5,348.5)"/><circle cx="150.5" cy="357.5" r="4.5" transform="rotate(0,150.5,357.5)"/><circle cx="150.5" cy="366.5" r="4.5" transform="rotate(0,150.5,366.5)"/><circle cx="150.5" cy="375.5" r="4.5" transform="rotate(0,150.5,375.5)"/><circle cx="150.5" cy="384.5" r="4.5" transform="rotate(0,150.5,384.5)"/><circle cx="150.5" cy="456.5" r="4.5" transform="rotate(0,150.5,456.5)"/><circle cx="150.5" cy="465.5" r="4.5" transform="rotate(0,150.5,465.5)"/><circle cx="159.5" cy="42.5" r="4.5" transform="rotate(0,159.5,42.5)"/><circle cx="159.5" cy="60.5" r="4.5" transform="rotate(0,159.5,60.5)"/><circle cx="159.5" cy="69.5" r="4.5" transform="rotate(0,159.5,69.5)"/><circle cx="159.5" cy="78.5" r="4.5" transform="rotate(0,159.5,78.5)"/><circle cx="159.5" cy="87.5" r="4.5" transform="rotate(0,159.5,87.5)"/><circle cx="159.5" cy="123.5" r="4.5" transform="rotate(0,159.5,123.5)"/><circle cx="159.5" cy="141.5" r="4.5" transform="rotate(0,159.5,141.5)"/><circle cx="159.5" cy="159.5" r="4.5" transform="rotate(0,159.5,159.5)"/><circle cx="159.5" cy="177.5" r="4.5" transform="rotate(0,159.5,177.5)"/><circle cx="159.5" cy="186.5" r="4.5" transform="rotate(0,159.5,186.5)"/><circle cx="159.5" cy="195.5" r="4.5" transform="rotate(0,159.5,195.5)"/><circle cx="159.5" cy="204.5" r="4.5" transform="rotate(0,159.5,204.5)"/><circle cx="159.5" cy="222.5" r="4.5" transform="rotate(0,159.5,222.5)"/><circle cx="159.5" cy="240.5" r="4.5" transform="rotate(0,159.5,240.5)"/><circle cx="159.5" cy="258.5" r="4.5" transform="rotate(0,159.5,258.5)"/><circle cx="159.5" cy="276.5" r="4.5" transform="rotate(0,159.5,276.5)"/><circle cx="159.5" cy="294.5" r="4.5" transform="rotate(0,159.5,294.5)"/><circle cx="159.5" cy="303.5" r="4.5" transform="rotate(0,159.5,303.5)"/><circle cx="159.5" cy="366.5" r="4.5" transform="rotate(0,159.5,366.5)"/><circle cx="159.5" cy="384.5" r="4.5" transform="rotate(0,159.5,384.5)"/><circle cx="159.5" cy="411.5" r="4.5" transform="rotate(0,159.5,411.5)"/><circle cx="159.5" cy="438.5" r="4.5" transform="rotate(0,159.5,438.5)"/><circle cx="159.5" cy="447.5" r="4.5" transform="rotate(0,159.5,447.5)"/><circle cx="159.5" cy="456.5" r="4.5" transform="rotate(0,159.5,456.5)"/><circle cx="168.5" cy="33.5" r="4.5" transform="rotate(0,168.5,33.5)"/><circle cx="168.5" cy="60.5" r="4.5" transform="rotate(0,168.5,60.5)"/><circle cx="168.5" cy="69.5" r="4.5" transform="rotate(0,168.5,69.5)"/><circle cx="168.5" cy="78.5" r="4.5" transform="rotate(0,168.5,78.5)"/><circle cx="168.5" cy="96.5" r="4.5" transform="rotate(0,168.5,96.5)"/><circle cx="168.5" cy="114.5" r="4.5" transform="rotate(0,168.5,114.5)"/><circle cx="168.5" cy="132.5" r="4.5" transform="rotate(0,168.5,132.5)"/><circle cx="168.5" cy="141.5" r="4.5" transform="rotate(0,168.5,141.5)"/><circle cx="168.5" cy="150.5" r="4.5" transform="rotate(0,168.5,150.5)"/><circle cx="168.5" cy="159.5" r="4.5" transform="rotate(0,168.5,159.5)"/><circle cx="168.5" cy="168.5" r="4.5" transform="rotate(0,168.5,168.5)"/><circle cx="168.5" cy="186.5" r="4.5" transform="rotate(0,168.5,186.5)"/><circle cx="168.5" cy="204.5" r="4.5" transform="rotate(0,168.5,204.5)"/><circle cx="168.5" cy="213.5" r="4.5" transform="rotate(0,168.5,213.5)"/><circle cx="168.5" cy="303.5" r="4.5" transform="rotate(0,168.5,303.5)"/><circle cx="168.5" cy="321.5" r="4.5" transform="rotate(0,168.5,321.5)"/><circle cx="168.5" cy="330.5" r="4.5" transform="rotate(0,168.5,330.5)"/><circle cx="168.5" cy="375.5" r="4.5" transform="rotate(0,168.5,375.5)"/><circle cx="168.5" cy="393.5" r="4.5" transform="rotate(0,168.5,393.5)"/><circle cx="168.5" cy="411.5" r="4.5" transform="rotate(0,168.5,411.5)"/><circle cx="168.5" cy="429.5" r="4.5" transform="rotate(0,168.5,429.5)"/><circle cx="168.5" cy="456.5" r="4.5" transform="rotate(0,168.5,456.5)"/><circle cx="177.5" cy="42.5" r="4.5" transform="rotate(0,177.5,42.5)"/><circle cx="177.5" cy="87.5" r="4.5" transform="rotate(0,177.5,87.5)"/><circle cx="177.5" cy="96.5" r="4.5" transform="rotate(0,177.5,96.5)"/><circle cx="177.5" cy="123.5" r="4.5" transform="rotate(0,177.5,123.5)"/><circle cx="177.5" cy="132.5" r="4.5" transform="rotate(0,177.5,132.5)"/><circle cx="177.5" cy="141.5" r="4.5" transform="rotate(0,177.5,141.5)"/><circle cx="177.5" cy="195.5" r="4.5" transform="rotate(0,177.5,195.5)"/><circle cx="177.5" cy="204.5" r="4.5" transform="rotate(0,177.5,204.5)"/><circle cx="177.5" cy="222.5" r="4.5" transform="rotate(0,177.5,222.5)"/><circle cx="177.5" cy="231.5" r="4.5" transform="rotate(0,177.5,231.5)"/><circle cx="177.5" cy="240.5" r="4.5" transform="rotate(0,177.5,240.5)"/><circle cx="177.5" cy="258.5" r="4.5" transform="rotate(0,177.5,258.5)"/><circle cx="177.5" cy="285.5" r="4.5" transform="rotate(0,177.5,285.5)"/><circle cx="177.5" cy="312.5" r="4.5" transform="rotate(0,177.5,312.5)"/><circle cx="177.5" cy="321.5" r="4.5" transform="rotate(0,177.5,321.5)"/><circle cx="177.5" cy="330.5" r="4.5" transform="rotate(0,177.5,330.5)"/><circle cx="177.5" cy="411.5" r="4.5" transform="rotate(0,177.5,411.5)"/><circle cx="177.5" cy="420.5" r="4.5" transform="rotate(0,177.5,420.5)"/><circle cx="177.5" cy="429.5" r="4.5" transform="rotate(0,177.5,429.5)"/><circle cx="177.5" cy="447.5" r="4.5" transform="rotate(0,177.5,447.5)"/><circle cx="177.5" cy="456.5" r="4.5" transform="rotate(0,177.5,456.5)"/><circle cx="186.5" cy="33.5" r="4.5" transform="rotate(0,186.5,33.5)"/><circle cx="186.5" cy="60.5" r="4.5" transform="rotate(0,186.5,60.5)"/><circle cx="186.5" cy="69.5" r="4.5" transform="rotate(0,186.5,69.5)"/><circle cx="186.5" cy="78.5" r="4.5" transform="rotate(0,186.5,78.5)"/><circle cx="186.5" cy="96.5" r="4.5" transform="rotate(0,186.5,96.5)"/><circle cx="186.5" cy="123.5" r="4.5" transform="rotate(0,186.5,123.5)"/><circle cx="186.5" cy="141.5" r="4.5" transform="rotate(0,186.5,141.5)"/><circle cx="186.5" cy="177.5" r="4.5" transform="rotate(0,186.5,177.5)"/><circle cx="186.5" cy="186.5" r="4.5" transform="rotate(0,186.5,186.5)"/><circle cx="186.5" cy="195.5" r="4.5" transform="rotate(0,186.5,195.5)"/><circle cx="186.5" cy="204.5" r="4.5" transform="rotate(0,186.5,204.5)"/><circle cx="186.5" cy="213.5" r="4.5" transform="rotate(0,186.5,213.5)"/><circle cx="186.5" cy="222.5" r="4.5" transform="rotate(0,186.5,222.5)"/><circle cx="186.5" cy="240.5" r="4.5" transform="rotate(0,186.5,240.5)"/><circle cx="186.5" cy="285.5" r="4.5" transform="rotate(0,186.5,285.5)"/><circle cx="186.5" cy="339.5" r="4.5" transform="rotate(0,186.5,339.5)"/><circle cx="186.5" cy="348.5" r="4.5" transform="rotate(0,186.5,348.5)"/><circle cx="186.5" cy="384.5" r="4.5" transform="rotate(0,186.5,384.5)"/><circle cx="186.5" cy="393.5" r="4.5" transform="rotate(0,186.5,393.5)"/><circle cx="186.5" cy="438.5" r="4.5" transform="rotate(0,186.5,438.5)"/><circle cx="186.5" cy="447.5" r="4.5" transform="rotate(0,186.5,447.5)"/><circle cx="186.5" cy="456.5" r="4.5" transform="rotate(0,186.5,456.5)"/><circle cx="186.5" cy="465.5" r="4.5" transform="rotate(0,186.5,465.5)"/><circle cx="195.5" cy="51.5" r="4.5" transform="rotate(0,195.5,51.5)"/><circle cx="195.5" cy="87.5" r="4.5" transform="rotate(0,195.5,87.5)"/><circle cx="195.5" cy="105.5" r="4.5" transform="rotate(0,195.5,105.5)"/><circle cx="195.5" cy="132.5" r="4.5" transform="rotate(0,195.5,132.5)"/><circle cx="195.5" cy="150.5" r="4.5" transform="rotate(0,195.5,150.5)"/><circle cx="195.5" cy="159.5" r="4.5" transform="rotate(0,195.5,159.5)"/><circle cx="195.5" cy="168.5" r="4.5" transform="rotate(0,195.5,168.5)"/><circle cx="195.5" cy="186.5" r="4.5" transform="rotate(0,195.5,186.5)"/><circle cx="195.5" cy="195.5" r="4.5" transform="rotate(0,195.5,195.5)"/><circle cx="195.5" cy="204.5" r="4.5" transform="rotate(0,195.5,204.5)"/><circle cx="195.5" cy="213.5" r="4.5" transform="rotate(0,195.5,213.5)"/><circle cx="195.5" cy="231.5" r="4.5" transform="rotate(0,195.5,231.5)"/><circle cx="195.5" cy="240.5" r="4.5" transform="rotate(0,195.5,240.5)"/><circle cx="195.5" cy="249.5" r="4.5" transform="rotate(0,195.5,249.5)"/><circle cx="195.5" cy="258.5" r="4.5" transform="rotate(0,195.5,258.5)"/><circle cx="195.5" cy="267.5" r="4.5" transform="rotate(0,195.5,267.5)"/><circle cx="195.5" cy="285.5" r="4.5" transform="rotate(0,195.5,285.5)"/><circle cx="195.5" cy="294.5" r="4.5" transform="rotate(0,195.5,294.5)"/><circle cx="195.5" cy="303.5" r="4.5" transform="rotate(0,195.5,303.5)"/><circle cx="195.5" cy="330.5" r="4.5" transform="rotate(0,195.5,330.5)"/><circle cx="195.5" cy="348.5" r="4.5" transform="rotate(0,195.5,348.5)"/><circle cx="195.5" cy="402.5" r="4.5" transform="rotate(0,195.5,402.5)"/><circle cx="195.5" cy="456.5" r="4.5" transform="rotate(0,195.5,456.5)"/><circle cx="195.5" cy="465.5" r="4.5" transform="rotate(0,195.5,465.5)"/><circle cx="204.5" cy="33.5" r="4.5" transform="rotate(0,204.5,33.5)"/><circle cx="204.5" cy="51.5" r="4.5" transform="rotate(0,204.5,51.5)"/><circle cx="204.5" cy="105.5" r="4.5" transform="rotate(0,204.5,105.5)"/><circle cx="204.5" cy="123.5" r="4.5" transform="rotate(0,204.5,123.5)"/><circle cx="204.5" cy="132.5" r="4.5" transform="rotate(0,204.5,132.5)"/><circle cx="204.5" cy="141.5" r="4.5" transform="rotate(0,204.5,141.5)"/><circle cx="204.5" cy="168.5" r="4.5" transform="rotate(0,204.5,168.5)"/><circle cx="204.5" cy="177.5" r="4.5" transform="rotate(0,204.5,177.5)"/><circle cx="204.5" cy="204.5" r="4.5" transform="rotate(0,204.5,204.5)"/><circle cx="204.5" cy="222.5" r="4.5" transform="rotate(0,204.5,222.5)"/><circle cx="204.5" cy="249.5" r="4.5" transform="rotate(0,204.5,249.5)"/><circle cx="204.5" cy="258.5" r="4.5" transform="rotate(0,204.5,258.5)"/><circle cx="204.5" cy="285.5" r="4.5" transform="rotate(0,204.5,285.5)"/><circle cx="204.5" cy="312.5" r="4.5" transform="rotate(0,204.5,312.5)"/><circle cx="204.5" cy="348.5" r="4.5" transform="rotate(0,204.5,348.5)"/><circle cx="204.5" cy="357.5" r="4.5" transform="rotate(0,204.5,357.5)"/><circle cx="204.5" cy="375.5" r="4.5" transform="rotate(0,204.5,375.5)"/><circle cx="204.5" cy="384.5" r="4.5" transform="rotate(0,204.5,384.5)"/><circle cx="204.5" cy="393.5" r="4.5" transform="rotate(0,204.5,393.5)"/><circle cx="204.5" cy="402.5" r="4.5" transform="rotate(0,204.5,402.5)"/><circle cx="204.5" cy="411.5" r="4.5" transform="rotate(0,204.5,411.5)"/><circle cx="204.5" cy="420.5" r="4.5" transform="rotate(0,204.5,420.5)"/><circle cx="204.5" cy="438.5" r="4.5" transform="rotate(0,204.5,438.5)"/><circle cx="204.5" cy="456.5" r="4.5" transform="rotate(0,204.5,456.5)"/><circle cx="204.5" cy="465.5" r="4.5" transform="rotate(0,204.5,465.5)"/><circle cx="213.5" cy="42.5" r="4.5" transform="rotate(0,213.5,42.5)"/><circle cx="213.5" cy="51.5" r="4.5" transform="rotate(0,213.5,51.5)"/><circle cx="213.5" cy="60.5" r="4.5" transform="rotate(0,213.5,60.5)"/><circle cx="213.5" cy="78.5" r="4.5" transform="rotate(0,213.5,78.5)"/><circle cx="213.5" cy="87.5" r="4.5" transform="rotate(0,213.5,87.5)"/><circle cx="213.5" cy="105.5" r="4.5" transform="rotate(0,213.5,105.5)"/><circle cx="213.5" cy="114.5" r="4.5" transform="rotate(0,213.5,114.5)"/><circle cx="213.5" cy="141.5" r="4.5" transform="rotate(0,213.5,141.5)"/><circle cx="213.5" cy="159.5" r="4.5" transform="rotate(0,213.5,159.5)"/><circle cx="213.5" cy="168.5" r="4.5" transform="rotate(0,213.5,168.5)"/><circle cx="213.5" cy="177.5" r="4.5" transform="rotate(0,213.5,177.5)"/><circle cx="213.5" cy="186.5" r="4.5" transform="rotate(0,213.5,186.5)"/><circle cx="213.5" cy="195.5" r="4.5" transform="rotate(0,213.5,195.5)"/><circle cx="213.5" cy="204.5" r="4.5" transform="rotate(0,213.5,204.5)"/><circle cx="213.5" cy="222.5" r="4.5" transform="rotate(0,213.5,222.5)"/><circle cx="213.5" cy="249.5" r="4.5" transform="rotate(0,213.5,249.5)"/><circle cx="213.5" cy="258.5" r="4.5" transform="rotate(0,213.5,258.5)"/><circle cx="213.5" cy="276.5" r="4.5" transform="rotate(0,213.5,276.5)"/><circle cx="213.5" cy="285.5" r="4.5" transform="rotate(0,213.5,285.5)"/><circle cx="213.5" cy="312.5" r="4.5" transform="rotate(0,213.5,312.5)"/><circle cx="213.5" cy="339.5" r="4.5" transform="rotate(0,213.5,339.5)"/><circle cx="213.5" cy="348.5" r="4.5" transform="rotate(0,213.5,348.5)"/><circle cx="213.5" cy="366.5" r="4.5" transform="rotate(0,213.5,366.5)"/><circle cx="213.5" cy="384.5" r="4.5" transform="rotate(0,213.5,384.5)"/><circle cx="213.5" cy="411.5" r="4.5" transform="rotate(0,213.5,411.5)"/><circle cx="213.5" cy="420.5" r="4.5" transform="rotate(0,213.5,420.5)"/><circle cx="213.5" cy="438.5" r="4.5" transform="rotate(0,213.5,438.5)"/><circle cx="213.5" cy="456.5" r="4.5" transform="rotate(0,213.5,456.5)"/><circle cx="213.5" cy="465.5" r="4.5" transform="rotate(0,213.5,465.5)"/><circle cx="222.5" cy="42.5" r="4.5" transform="rotate(0,222.5,42.5)"/><circle cx="222.5" cy="69.5" r="4.5" transform="rotate(0,222.5,69.5)"/><circle cx="222.5" cy="78.5" r="4.5" transform="rotate(0,222.5,78.5)"/><circle cx="222.5" cy="105.5" r="4.5" transform="rotate(0,222.5,105.5)"/><circle cx="222.5" cy="114.5" r="4.5" transform="rotate(0,222.5,114.5)"/><circle cx="222.5" cy="123.5" r="4.5" transform="rotate(0,222.5,123.5)"/><circle cx="222.5" cy="141.5" r="4.5" transform="rotate(0,222.5,141.5)"/><circle cx="222.5" cy="168.5" r="4.5" transform="rotate(0,222.5,168.5)"/><circle cx="222.5" cy="195.5" r="4.5" transform="rotate(0,222.5,195.5)"/><circle cx="222.5" cy="204.5" r="4.5" transform="rotate(0,222.5,204.5)"/><circle cx="222.5" cy="249.5" r="4.5" transform="rotate(0,222.5,249.5)"/><circle cx="222.5" cy="276.5" r="4.5" transform="rotate(0,222.5,276.5)"/><circle cx="222.5" cy="294.5" r="4.5" transform="rotate(0,222.5,294.5)"/><circle cx="222.5" cy="303.5" r="4.5" transform="rotate(0,222.5,303.5)"/><circle cx="222.5" cy="321.5" r="4.5" transform="rotate(0,222.5,321.5)"/><circle cx="222.5" cy="366.5" r="4.5" transform="rotate(0,222.5,366.5)"/><circle cx="222.5" cy="384.5" r="4.5" transform="rotate(0,222.5,384.5)"/><circle cx="222.5" cy="411.5" r="4.5" transform="rotate(0,222.5,411.5)"/><circle cx="222.5" cy="420.5" r="4.5" transform="rotate(0,222.5,420.5)"/><circle cx="222.5" cy="438.5" r="4.5" transform="rotate(0,222.5,438.5)"/><circle cx="222.5" cy="456.5" r="4.5" transform="rotate(0,222.5,456.5)"/><circle cx="231.5" cy="33.5" r="4.5" transform="rotate(0,231.5,33.5)"/><circle cx="231.5" cy="60.5" r="4.5" transform="rotate(0,231.5,60.5)"/><circle cx="231.5" cy="69.5" r="4.5" transform="rotate(0,231.5,69.5)"/><circle cx="231.5" cy="78.5" r="4.5" transform="rotate(0,231.5,78.5)"/><circle cx="231.5" cy="87.5" r="4.5" transform="rotate(0,231.5,87.5)"/><circle cx="231.5" cy="96.5" r="4.5" transform="rotate(0,231.5,96.5)"/><circle cx="231.5" cy="105.5" r="4.5" transform="rotate(0,231.5,105.5)"/><circle cx="231.5" cy="114.5" r="4.5" transform="rotate(0,231.5,114.5)"/><circle cx="231.5" cy="150.5" r="4.5" transform="rotate(0,231.5,150.5)"/><circle cx="231.5" cy="177.5" r="4.5" transform="rotate(0,231.5,177.5)"/><circle cx="231.5" cy="195.5" r="4.5" transform="rotate(0,231.5,195.5)"/><circle cx="231.5" cy="231.5" r="4.5" transform="rotate(0,231.5,231.5)"/><circle cx="231.5" cy="240.5" r="4.5" transform="rotate(0,231.5,240.5)"/><circle cx="231.5" cy="249.5" r="4.5" transform="rotate(0,231.5,249.5)"/><circle cx="231.5" cy="258.5" r="4.5" transform="rotate(0,231.5,258.5)"/><circle cx="231.5" cy="267.5" r="4.5" transform="rotate(0,231.5,267.5)"/><circle cx="231.5" cy="294.5" r="4.5" transform="rotate(0,231.5,294.5)"/><circle cx="231.5" cy="303.5" r="4.5" transform="rotate(0,231.5,303.5)"/><circle cx="231.5" cy="321.5" r="4.5" transform="rotate(0,231.5,321.5)"/><circle cx="231.5" cy="339.5" r="4.5" transform="rotate(0,231.5,339.5)"/><circle cx="231.5" cy="357.5" r="4.5" transform="rotate(0,231.5,357.5)"/><circle cx="231.5" cy="384.5" r="4.5" transform="rotate(0,231.5,384.5)"/><circle cx="231.5" cy="393.5" r="4.5" transform="rotate(0,231.5,393.5)"/><circle cx="231.5" cy="402.5" r="4.5" transform="rotate(0,231.5,402.5)"/><circle cx="231.5" cy="411.5" r="4.5" transform="rotate(0,231.5,411.5)"/><circle cx="231.5" cy="420.5" r="4.5" transform="rotate(0,231.5,420.5)"/><circle cx="231.5" cy="429.5" r="4.5" transform="rotate(0,231.5,429.5)"/><circle cx="231.5" cy="438.5" r="4.5" transform="rotate(0,231.5,438.5)"/><circle cx="231.5" cy="447.5" r="4.5" transform="rotate(0,231.5,447.5)"/><circle cx="240.5" cy="33.5" r="4.5" transform="rotate(0,240.5,33.5)"/><circle cx="240.5" cy="69.5" r="4.5" transform="rotate(0,240.5,69.5)"/><circle cx="240.5" cy="105.5" r="4.5" transform="rotate(0,240.5,105.5)"/><circle cx="240.5" cy="123.5" r="4.5" transform="rotate(0,240.5,123.5)"/><circle cx="240.5" cy="150.5" r="4.5" transform="rotate(0,240.5,150.5)"/><circle cx="240.5" cy="168.5" r="4.5" transform="rotate(0,240.5,168.5)"/><circle cx="240.5" cy="177.5" r="4.5" transform="rotate(0,240.5,177.5)"/><circle cx="240.5" cy="186.5" r="4.5" transform="rotate(0,240.5,186.5)"/><circle cx="240.5" cy="195.5" r="4.5" transform="rotate(0,240.5,195.5)"/><circle cx="240.5" cy="204.5" r="4.5" transform="rotate(0,240.5,204.5)"/><circle cx="240.5" cy="213.5" r="4.5" transform="rotate(0,240.5,213.5)"/><circle cx="240.5" cy="222.5" r="4.5" transform="rotate(0,240.5,222.5)"/><circle cx="240.5" cy="231.5" r="4.5" transform="rotate(0,240.5,231.5)"/><circle cx="240.5" cy="267.5" r="4.5" transform="rotate(0,240.5,267.5)"/><circle cx="240.5" cy="285.5" r="4.5" transform="rotate(0,240.5,285.5)"/><circle cx="240.5" cy="321.5" r="4.5" transform="rotate(0,240.5,321.5)"/><circle cx="240.5" cy="330.5" r="4.5" transform="rotate(0,240.5,330.5)"/><circle cx="240.5" cy="339.5" r="4.5" transform="rotate(0,240.5,339.5)"/><circle cx="240.5" cy="357.5" r="4.5" transform="rotate(0,240.5,357.5)"/><circle cx="240.5" cy="375.5" r="4.5" transform="rotate(0,240.5,375.5)"/><circle cx="240.5" cy="393.5" r="4.5" transform="rotate(0,240.5,393.5)"/><circle cx="240.5" cy="429.5" r="4.5" transform="rotate(0,240.5,429.5)"/><circle cx="240.5" cy="438.5" r="4.5" transform="rotate(0,240.5,438.5)"/><circle cx="240.5" cy="447.5" r="4.5" transform="rotate(0,240.5,447.5)"/><circle cx="240.5" cy="456.5" r="4.5" transform="rotate(0,240.5,456.5)"/><circle cx="249.5" cy="33.5" r="4.5" transform="rotate(0,249.5,33.5)"/><circle cx="249.5" cy="51.5" r="4.5" transform="rotate(0,249.5,51.5)"/><circle cx="249.5" cy="60.5" r="4.5" transform="rotate(0,249.5,60.5)"/><circle cx="249.5" cy="69.5" r="4.5" transform="rotate(0,249.5,69.5)"/><circle cx="249.5" cy="87.5" r="4.5" transform="rotate(0,249.5,87.5)"/><circle cx="249.5" cy="105.5" r="4.5" transform="rotate(0,249.5,105.5)"/><circle cx="249.5" cy="150.5" r="4.5" transform="rotate(0,249.5,150.5)"/><circle cx="249.5" cy="177.5" r="4.5" transform="rotate(0,249.5,177.5)"/><circle cx="249.5" cy="204.5" r="4.5" transform="rotate(0,249.5,204.5)"/><circle cx="249.5" cy="231.5" r="4.5" transform="rotate(0,249.5,231.5)"/><circle cx="249.5" cy="249.5" r="4.5" transform="rotate(0,249.5,249.5)"/><circle cx="249.5" cy="267.5" r="4.5" transform="rotate(0,249.5,267.5)"/><circle cx="249.5" cy="285.5" r="4.5" transform="rotate(0,249.5,285.5)"/><circle cx="249.5" cy="303.5" r="4.5" transform="rotate(0,249.5,303.5)"/><circle cx="249.5" cy="348.5" r="4.5" transform="rotate(0,249.5,348.5)"/><circle cx="249.5" cy="357.5" r="4.5" transform="rotate(0,249.5,357.5)"/><circle cx="249.5" cy="393.5" r="4.5" transform="rotate(0,249.5,393.5)"/><circle cx="249.5" cy="411.5" r="4.5" transform="rotate(0,249.5,411.5)"/><circle cx="249.5" cy="429.5" r="4.5" transform="rotate(0,249.5,429.5)"/><circle cx="249.5" cy="438.5" r="4.5" transform="rotate(0,249.5,438.5)"/><circle cx="249.5" cy="447.5" r="4.5" transform="rotate(0,249.5,447.5)"/><circle cx="249.5" cy="456.5" r="4.5" transform="rotate(0,249.5,456.5)"/><circle cx="249.5" cy="465.5" r="4.5" transform="rotate(0,249.5,465.5)"/><circle cx="258.5" cy="33.5" r="4.5" transform="rotate(0,258.5,33.5)"/><circle cx="258.5" cy="51.5" r="4.5" transform="rotate(0,258.5,51.5)"/><circle cx="258.5" cy="60.5" r="4.5" transform="rotate(0,258.5,60.5)"/><circle cx="258.5" cy="69.5" r="4.5" transform="rotate(0,258.5,69.5)"/><circle cx="258.5" cy="105.5" r="4.5" transform="rotate(0,258.5,105.5)"/><circle cx="258.5" cy="132.5" r="4.5" transform="rotate(0,258.5,132.5)"/><circle cx="258.5" cy="150.5" r="4.5" transform="rotate(0,258.5,150.5)"/><circle cx="258.5" cy="159.5" r="4.5" transform="rotate(0,258.5,159.5)"/><circle cx="258.5" cy="168.5" r="4.5" transform="rotate(0,258.5,168.5)"/><circle cx="258.5" cy="186.5" r="4.5" transform="rotate(0,258.5,186.5)"/><circle cx="258.5" cy="204.5" r="4.5" transform="rotate(0,258.5,204.5)"/><circle cx="258.5" cy="222.5" r="4.5" transform="rotate(0,258.5,222.5)"/><circle cx="258.5" cy="231.5" r="4.5" transform="rotate(0,258.5,231.5)"/><circle cx="258.5" cy="267.5" r="4.5" transform="rotate(0,258.5,267.5)"/><circle cx="258.5" cy="285.5" r="4.5" transform="rotate(0,258.5,285.5)"/><circle cx="258.5" cy="312.5" r="4.5" transform="rotate(0,258.5,312.5)"/><circle cx="258.5" cy="321.5" r="4.5" transform="rotate(0,258.5,321.5)"/><circle cx="258.5" cy="330.5" r="4.5" transform="rotate(0,258.5,330.5)"/><circle cx="258.5" cy="348.5" r="4.5" transform="rotate(0,258.5,348.5)"/><circle cx="258.5" cy="366.5" r="4.5" transform="rotate(0,258.5,366.5)"/><circle cx="258.5" cy="375.5" r="4.5" transform="rotate(0,258.5,375.5)"/><circle cx="258.5" cy="393.5" r="4.5" transform="rotate(0,258.5,393.5)"/><circle cx="258.5" cy="429.5" r="4.5" transform="rotate(0,258.5,429.5)"/><circle cx="258.5" cy="456.5" r="4.5" transform="rotate(0,258.5,456.5)"/><circle cx="267.5" cy="33.5" r="4.5" transform="rotate(0,267.5,33.5)"/><circle cx="267.5" cy="51.5" r="4.5" transform="rotate(0,267.5,51.5)"/><circle cx="267.5" cy="69.5" r="4.5" transform="rotate(0,267.5,69.5)"/><circle cx="267.5" cy="78.5" r="4.5" transform="rotate(0,267.5,78.5)"/><circle cx="267.5" cy="87.5" r="4.5" transform="rotate(0,267.5,87.5)"/><circle cx="267.5" cy="96.5" r="4.5" transform="rotate(0,267.5,96.5)"/><circle cx="267.5" cy="105.5" r="4.5" transform="rotate(0,267.5,105.5)"/><circle cx="267.5" cy="123.5" r="4.5" transform="rotate(0,267.5,123.5)"/><circle cx="267.5" cy="132.5" r="4.5" transform="rotate(0,267.5,132.5)"/><circle cx="267.5" cy="159.5" r="4.5" transform="rotate(0,267.5,159.5)"/><circle cx="267.5" cy="195.5" r="4.5" transform="rotate(0,267.5,195.5)"/><circle cx="267.5" cy="213.5" r="4.5" transform="rotate(0,267.5,213.5)"/><circle cx="267.5" cy="222.5" r="4.5" transform="rotate(0,267.5,222.5)"/><circle cx="267.5" cy="231.5" r="4.5" transform="rotate(0,267.5,231.5)"/><circle cx="267.5" cy="240.5" r="4.5" transform="rotate(0,267.5,240.5)"/><circle cx="267.5" cy="249.5" r="4.5" transform="rotate(0,267.5,249.5)"/><circle cx="267.5" cy="258.5" r="4.5" transform="rotate(0,267.5,258.5)"/><circle cx="267.5" cy="267.5" r="4.5" transform="rotate(0,267.5,267.5)"/><circle cx="267.5" cy="276.5" r="4.5" transform="rotate(0,267.5,276.5)"/><circle cx="267.5" cy="303.5" r="4.5" transform="rotate(0,267.5,303.5)"/><circle cx="267.5" cy="312.5" r="4.5" transform="rotate(0,267.5,312.5)"/><circle cx="267.5" cy="321.5" r="4.5" transform="rotate(0,267.5,321.5)"/><circle cx="267.5" cy="357.5" r="4.5" transform="rotate(0,267.5,357.5)"/><circle cx="267.5" cy="366.5" r="4.5" transform="rotate(0,267.5,366.5)"/><circle cx="267.5" cy="375.5" r="4.5" transform="rotate(0,267.5,375.5)"/><circle cx="267.5" cy="384.5" r="4.5" transform="rotate(0,267.5,384.5)"/><circle cx="267.5" cy="393.5" r="4.5" transform="rotate(0,267.5,393.5)"/><circle cx="267.5" cy="402.5" r="4.5" transform="rotate(0,267.5,402.5)"/><circle cx="267.5" cy="411.5" r="4.5" transform="rotate(0,267.5,411.5)"/><circle cx="267.5" cy="420.5" r="4.5" transform="rotate(0,267.5,420.5)"/><circle cx="267.5" cy="429.5" r="4.5" transform="rotate(0,267.5,429.5)"/><circle cx="267.5" cy="456.5" r="4.5" transform="rotate(0,267.5,456.5)"/><circle cx="276.5" cy="42.5" r="4.5" transform="rotate(0,276.5,42.5)"/><circle cx="276.5" cy="51.5" r="4.5" transform="rotate(0,276.5,51.5)"/><circle cx="276.5" cy="60.5" r="4.5" transform="rotate(0,276.5,60.5)"/><circle cx="276.5" cy="69.5" r="4.5" transform="rotate(0,276.5,69.5)"/><circle cx="276.5" cy="78.5" r="4.5" transform="rotate(0,276.5,78.5)"/><circle cx="276.5" cy="96.5" r="4.5" transform="rotate(0,276.5,96.5)"/><circle cx="276.5" cy="105.5" r="4.5" transform="rotate(0,276.5,105.5)"/><circle cx="276.5" cy="114.5" r="4.5" transform="rotate(0,276.5,114.5)"/><circle cx="276.5" cy="150.5" r="4.5" transform="rotate(0,276.5,150.5)"/><circle cx="276.5" cy="177.5" r="4.5" transform="rotate(0,276.5,177.5)"/><circle cx="276.5" cy="204.5" r="4.5" transform="rotate(0,276.5,204.5)"/><circle cx="276.5" cy="249.5" r="4.5" transform="rotate(0,276.5,249.5)"/><circle cx="276.5" cy="267.5" r="4.5" transform="rotate(0,276.5,267.5)"/><circle cx="276.5" cy="276.5" r="4.5" transform="rotate(0,276.5,276.5)"/><circle cx="276.5" cy="303.5" r="4.5" transform="rotate(0,276.5,303.5)"/><circle cx="276.5" cy="321.5" r="4.5" transform="rotate(0,276.5,321.5)"/><circle cx="276.5" cy="339.5" r="4.5" transform="rotate(0,276.5,339.5)"/><circle cx="276.5" cy="348.5" r="4.5" transform="rotate(0,276.5,348.5)"/><circle cx="276.5" cy="429.5" r="4.5" transform="rotate(0,276.5,429.5)"/><circle cx="276.5" cy="456.5" r="4.5" transform="rotate(0,276.5,456.5)"/><circle cx="285.5" cy="42.5" r="4.5" transform="rotate(0,285.5,42.5)"/><circle cx="285.5" cy="51.5" r="4.5" transform="rotate(0,285.5,51.5)"/><circle cx="285.5" cy="60.5" r="4.5" transform="rotate(0,285.5,60.5)"/><circle cx="285.5" cy="87.5" r="4.5" transform="rotate(0,285.5,87.5)"/><circle cx="285.5" cy="123.5" r="4.5" transform="rotate(0,285.5,123.5)"/><circle cx="285.5" cy="132.5" r="4.5" transform="rotate(0,285.5,132.5)"/><circle cx="285.5" cy="150.5" r="4.5" transform="rotate(0,285.5,150.5)"/><circle cx="285.5" cy="177.5" r="4.5" transform="rotate(0,285.5,177.5)"/><circle cx="285.5" cy="195.5" r="4.5" transform="rotate(0,285.5,195.5)"/><circle cx="285.5" cy="222.5" r="4.5" transform="rotate(0,285.5,222.5)"/><circle cx="285.5" cy="240.5" r="4.5" transform="rotate(0,285.5,240.5)"/><circle cx="285.5" cy="249.5" r="4.5" transform="rotate(0,285.5,249.5)"/><circle cx="285.5" cy="258.5" r="4.5" transform="rotate(0,285.5,258.5)"/><circle cx="285.5" cy="276.5" r="4.5" transform="rotate(0,285.5,276.5)"/><circle cx="285.5" cy="303.5" r="4.5" transform="rotate(0,285.5,303.5)"/><circle cx="285.5" cy="312.5" r="4.5" transform="rotate(0,285.5,312.5)"/><circle cx="285.5" cy="321.5" r="4.5" transform="rotate(0,285.5,321.5)"/><circle cx="285.5" cy="339.5" r="4.5" transform="rotate(0,285.5,339.5)"/><circle cx="285.5" cy="348.5" r="4.5" transform="rotate(0,285.5,348.5)"/><circle cx="285.5" cy="366.5" r="4.5" transform="rotate(0,285.5,366.5)"/><circle cx="285.5" cy="375.5" r="4.5" transform="rotate(0,285.5,375.5)"/><circle cx="285.5" cy="402.5" r="4.5" transform="rotate(0,285.5,402.5)"/><circle cx="285.5" cy="411.5" r="4.5" transform="rotate(0,285.5,411.5)"/><circle cx="285.5" cy="429.5" r="4.5" transform="rotate(0,285.5,429.5)"/><circle cx="285.5" cy="447.5" r="4.5" transform="rotate(0,285.5,447.5)"/><circle cx="285.5" cy="456.5" r="4.5" transform="rotate(0,285.5,456.5)"/><circle cx="294.5" cy="33.5" r="4.5" transform="rotate(0,294.5,33.5)"/><circle cx="294.5" cy="60.5" r="4.5" transform="rotate(0,294.5,60.5)"/><circle cx="294.5" cy="78.5" r="4.5" transform="rotate(0,294.5,78.5)"/><circle cx="294.5" cy="96.5" r="4.5" transform="rotate(0,294.5,96.5)"/><circle cx="294.5" cy="114.5" r="4.5" transform="rotate(0,294.5,114.5)"/><circle cx="294.5" cy="123.5" r="4.5" transform="rotate(0,294.5,123.5)"/><circle cx="294.5" cy="132.5" r="4.5" transform="rotate(0,294.5,132.5)"/><circle cx="294.5" cy="141.5" r="4.5" transform="rotate(0,294.5,141.5)"/><circle cx="294.5" cy="168.5" r="4.5" transform="rotate(0,294.5,168.5)"/><circle cx="294.5" cy="177.5" r="4.5" transform="rotate(0,294.5,177.5)"/><circle cx="294.5" cy="186.5" r="4.5" transform="rotate(0,294.5,186.5)"/><circle cx="294.5" cy="195.5" r="4.5" transform="rotate(0,294.5,195.5)"/><circle cx="294.5" cy="222.5" r="4.5" transform="rotate(0,294.5,222.5)"/><circle cx="294.5" cy="240.5" r="4.5" transform="rotate(0,294.5,240.5)"/><circle cx="294.5" cy="249.5" r="4.5" transform="rotate(0,294.5,249.5)"/><circle cx="294.5" cy="267.5" r="4.5" transform="rotate(0,294.5,267.5)"/><circle cx="294.5" cy="276.5" r="4.5" transform="rotate(0,294.5,276.5)"/><circle cx="294.5" cy="285.5" r="4.5" transform="rotate(0,294.5,285.5)"/><circle cx="294.5" cy="294.5" r="4.5" transform="rotate(0,294.5,294.5)"/><circle cx="294.5" cy="339.5" r="4.5" transform="rotate(0,294.5,339.5)"/><circle cx="294.5" cy="348.5" r="4.5" transform="rotate(0,294.5,348.5)"/><circle cx="294.5" cy="384.5" r="4.5" transform="rotate(0,294.5,384.5)"/><circle cx="294.5" cy="393.5" r="4.5" transform="rotate(0,294.5,393.5)"/><circle cx="294.5" cy="402.5" r="4.5" transform="rotate(0,294.5,402.5)"/><circle cx="294.5" cy="411.5" r="4.5" transform="rotate(0,294.5,411.5)"/><circle cx="294.5" cy="438.5" r="4.5" transform="rotate(0,294.5,438.5)"/><circle cx="294.5" cy="447.5" r="4.5" transform="rotate(0,294.5,447.5)"/><circle cx="294.5" cy="465.5" r="4.5" transform="rotate(0,294.5,465.5)"/><circle cx="303.5" cy="33.5" r="4.5" transform="rotate(0,303.5,33.5)"/><circle cx="303.5" cy="42.5" r="4.5" transform="rotate(0,303.5,42.5)"/><circle cx="303.5" cy="51.5" r="4.5" transform="rotate(0,303.5,51.5)"/><circle cx="303.5" cy="87.5" r="4.5" transform="rotate(0,303.5,87.5)"/><circle cx="303.5" cy="96.5" r="4.5" transform="rotate(0,303.5,96.5)"/><circle cx="303.5" cy="105.5" r="4.5" transform="rotate(0,303.5,105.5)"/><circle cx="303.5" cy="114.5" r="4.5" transform="rotate(0,303.5,114.5)"/><circle cx="303.5" cy="186.5" r="4.5" transform="rotate(0,303.5,186.5)"/><circle cx="303.5" cy="195.5" r="4.5" transform="rotate(0,303.5,195.5)"/><circle cx="303.5" cy="204.5" r="4.5" transform="rotate(0,303.5,204.5)"/><circle cx="303.5" cy="213.5" r="4.5" transform="rotate(0,303.5,213.5)"/><circle cx="303.5" cy="222.5" r="4.5" transform="rotate(0,303.5,222.5)"/><circle cx="303.5" cy="249.5" r="4.5" transform="rotate(0,303.5,249.5)"/><circle cx="303.5" cy="258.5" r="4.5" transform="rotate(0,303.5,258.5)"/><circle cx="303.5" cy="267.5" r="4.5" transform="rotate(0,303.5,267.5)"/><circle cx="303.5" cy="276.5" r="4.5" transform="rotate(0,303.5,276.5)"/><circle cx="303.5" cy="285.5" r="4.5" transform="rotate(0,303.5,285.5)"/><circle cx="303.5" cy="312.5" r="4.5" transform="rotate(0,303.5,312.5)"/><circle cx="303.5" cy="321.5" r="4.5" transform="rotate(0,303.5,321.5)"/><circle cx="303.5" cy="330.5" r="4.5" transform="rotate(0,303.5,330.5)"/><circle cx="303.5" cy="339.5" r="4.5" transform="rotate(0,303.5,339.5)"/><circle cx="303.5" cy="375.5" r="4.5" transform="rotate(0,303.5,375.5)"/><circle cx="303.5" cy="384.5" r="4.5" transform="rotate(0,303.5,384.5)"/><circle cx="303.5" cy="393.5" r="4.5" transform="rotate(0,303.5,393.5)"/><circle cx="303.5" cy="402.5" r="4.5" transform="rotate(0,303.5,402.5)"/><circle cx="303.5" cy="411.5" r="4.5" transform="rotate(0,303.5,411.5)"/><circle cx="303.5" cy="420.5" r="4.5" transform="rotate(0,303.5,420.5)"/><circle cx="303.5" cy="465.5" r="4.5" transform="rotate(0,303.5,465.5)"/><circle cx="312.5" cy="33.5" r="4.5" transform="rotate(0,312.5,33.5)"/><circle cx="312.5" cy="42.5" r="4.5" transform="rotate(0,312.5,42.5)"/><circle cx="312.5" cy="51.5" r="4.5" transform="rotate(0,312.5,51.5)"/><circle cx="312.5" cy="78.5" r="4.5" transform="rotate(0,312.5,78.5)"/><circle cx="312.5" cy="96.5" r="4.5" transform="rotate(0,312.5,96.5)"/><circle cx="312.5" cy="123.5" r="4.5" transform="rotate(0,312.5,123.5)"/><circle cx="312.5" cy="132.5" r="4.5" transform="rotate(0,312.5,132.5)"/><circle cx="312.5" cy="141.5" r="4.5" transform="rotate(0,312.5,141.5)"/><circle cx="312.5" cy="150.5" r="4.5" transform="rotate(0,312.5,150.5)"/><circle cx="312.5" cy="159.5" r="4.5" transform="rotate(0,312.5,159.5)"/><circle cx="312.5" cy="168.5" r="4.5" transform="rotate(0,312.5,168.5)"/><circle cx="312.5" cy="177.5" r="4.5" transform="rotate(0,312.5,177.5)"/><circle cx="312.5" cy="213.5" r="4.5" transform="rotate(0,312.5,213.5)"/><circle cx="312.5" cy="222.5" r="4.5" transform="rotate(0,312.5,222.5)"/><circle cx="312.5" cy="240.5" r="4.5" transform="rotate(0,312.5,240.5)"/><circle cx="312.5" cy="249.5" r="4.5" transform="rotate(0,312.5,249.5)"/><circle cx="312.5" cy="258.5" r="4.5" transform="rotate(0,312.5,258.5)"/><circle cx="312.5" cy="267.5" r="4.5" transform="rotate(0,312.5,267.5)"/><circle cx="312.5" cy="276.5" r="4.5" transform="rotate(0,312.5,276.5)"/><circle cx="312.5" cy="303.5" r="4.5" transform="rotate(0,312.5,303.5)"/><circle cx="312.5" cy="312.5" r="4.5" transform="rotate(0,312.5,312.5)"/><circle cx="312.5" cy="321.5" r="4.5" transform="rotate(0,312.5,321.5)"/><circle cx="312.5" cy="330.5" r="4.5" transform="rotate(0,312.5,330.5)"/><circle cx="312.5" cy="348.5" r="4.5" transform="rotate(0,312.5,348.5)"/><circle cx="312.5" cy="375.5" r="4.5" transform="rotate(0,312.5,375.5)"/><circle cx="312.5" cy="384.5" r="4.5" transform="rotate(0,312.5,384.5)"/><circle cx="312.5" cy="402.5" r="4.5" transform="rotate(0,312.5,402.5)"/><circle cx="312.5" cy="411.5" r="4.5" transform="rotate(0,312.5,411.5)"/><circle cx="312.5" cy="438.5" r="4.5" transform="rotate(0,312.5,438.5)"/><circle cx="312.5" cy="456.5" r="4.5" transform="rotate(0,312.5,456.5)"/><circle cx="321.5" cy="42.5" r="4.5" transform="rotate(0,321.5,42.5)"/><circle cx="321.5" cy="87.5" r="4.5" transform="rotate(0,321.5,87.5)"/><circle cx="321.5" cy="96.5" r="4.5" transform="rotate(0,321.5,96.5)"/><circle cx="321.5" cy="105.5" r="4.5" transform="rotate(0,321.5,105.5)"/><circle cx="321.5" cy="141.5" r="4.5" transform="rotate(0,321.5,141.5)"/><circle cx="321.5" cy="159.5" r="4.5" transform="rotate(0,321.5,159.5)"/><circle cx="321.5" cy="177.5" r="4.5" transform="rotate(0,321.5,177.5)"/><circle cx="321.5" cy="195.5" r="4.5" transform="rotate(0,321.5,195.5)"/><circle cx="321.5" cy="222.5" r="4.5" transform="rotate(0,321.5,222.5)"/><circle cx="321.5" cy="231.5" r="4.5" transform="rotate(0,321.5,231.5)"/><circle cx="321.5" cy="249.5" r="4.5" transform="rotate(0,321.5,249.5)"/><circle cx="321.5" cy="267.5" r="4.5" transform="rotate(0,321.5,267.5)"/><circle cx="321.5" cy="285.5" r="4.5" transform="rotate(0,321.5,285.5)"/><circle cx="321.5" cy="294.5" r="4.5" transform="rotate(0,321.5,294.5)"/><circle cx="321.5" cy="312.5" r="4.5" transform="rotate(0,321.5,312.5)"/><circle cx="321.5" cy="339.5" r="4.5" transform="rotate(0,321.5,339.5)"/><circle cx="321.5" cy="348.5" r="4.5" transform="rotate(0,321.5,348.5)"/><circle cx="321.5" cy="393.5" r="4.5" transform="rotate(0,321.5,393.5)"/><circle cx="321.5" cy="420.5" r="4.5" transform="rotate(0,321.5,420.5)"/><circle cx="321.5" cy="429.5" r="4.5" transform="rotate(0,321.5,429.5)"/><circle cx="330.5" cy="51.5" r="4.5" transform="rotate(0,330.5,51.5)"/><circle cx="330.5" cy="60.5" r="4.5" transform="rotate(0,330.5,60.5)"/><circle cx="330.5" cy="105.5" r="4.5" transform="rotate(0,330.5,105.5)"/><circle cx="330.5" cy="114.5" r="4.5" transform="rotate(0,330.5,114.5)"/><circle cx="330.5" cy="141.5" r="4.5" transform="rotate(0,330.5,141.5)"/><circle cx="330.5" cy="186.5" r="4.5" transform="rotate(0,330.5,186.5)"/><circle cx="330.5" cy="195.5" r="4.5" transform="rotate(0,330.5,195.5)"/><circle cx="330.5" cy="213.5" r="4.5" transform="rotate(0,330.5,213.5)"/><circle cx="330.5" cy="222.5" r="4.5" transform="rotate(0,330.5,222.5)"/><circle cx="330.5" cy="231.5" r="4.5" transform="rotate(0,330.5,231.5)"/><circle cx="330.5" cy="303.5" r="4.5" transform="rotate(0,330.5,303.5)"/><circle cx="330.5" cy="312.5" r="4.5" transform="rotate(0,330.5,312.5)"/><circle cx="330.5" cy="330.5" r="4.5" transform="rotate(0,330.5,330.5)"/><circle cx="330.5" cy="366.5" r="4.5" transform="rotate(0,330.5,366.5)"/><circle cx="330.5" cy="393.5" r="4.5" transform="rotate(0,330.5,393.5)"/><circle cx="330.5" cy="411.5" r="4.5" transform="rotate(0,330.5,411.5)"/><circle cx="330.5" cy="438.5" r="4.5" transform="rotate(0,330.5,438.5)"/><circle cx="339.5" cy="33.5" r="4.5" transform="rotate(0,339.5,33.5)"/><circle cx="339.5" cy="42.5" r="4.5" transform="rotate(0,339.5,42.5)"/><circle cx="339.5" cy="60.5" r="4.5" transform="rotate(0,339.5,60.5)"/><circle cx="339.5" cy="69.5" r="4.5" transform="rotate(0,339.5,69.5)"/><circle cx="339.5" cy="78.5" r="4.5" transform="rotate(0,339.5,78.5)"/><circle cx="339.5" cy="87.5" r="4.5" transform="rotate(0,339.5,87.5)"/><circle cx="339.5" cy="105.5" r="4.5" transform="rotate(0,339.5,105.5)"/><circle cx="339.5" cy="123.5" r="4.5" transform="rotate(0,339.5,123.5)"/><circle cx="339.5" cy="150.5" r="4.5" transform="rotate(0,339.5,150.5)"/><circle cx="339.5" cy="159.5" r="4.5" transform="rotate(0,339.5,159.5)"/><circle cx="339.5" cy="168.5" r="4.5" transform="rotate(0,339.5,168.5)"/><circle cx="339.5" cy="258.5" r="4.5" transform="rotate(0,339.5,258.5)"/><circle cx="339.5" cy="267.5" r="4.5" transform="rotate(0,339.5,267.5)"/><circle cx="339.5" cy="303.5" r="4.5" transform="rotate(0,339.5,303.5)"/><circle cx="339.5" cy="321.5" r="4.5" transform="rotate(0,339.5,321.5)"/><circle cx="339.5" cy="339.5" r="4.5" transform="rotate(0,339.5,339.5)"/><circle cx="339.5" cy="384.5" r="4.5" transform="rotate(0,339.5,384.5)"/><circle cx="339.5" cy="429.5" r="4.5" transform="rotate(0,339.5,429.5)"/><circle cx="348.5" cy="42.5" r="4.5" transform="rotate(0,348.5,42.5)"/><circle cx="348.5" cy="51.5" r="4.5" transform="rotate(0,348.5,51.5)"/><circle cx="348.5" cy="60.5" r="4.5" transform="rotate(0,348.5,60.5)"/><circle cx="348.5" cy="69.5" r="4.5" transform="rotate(0,348.5,69.5)"/><circle cx="348.5" cy="96.5" r="4.5" transform="rotate(0,348.5,96.5)"/><circle cx="348.5" cy="132.5" r="4.5" transform="rotate(0,348.5,132.5)"/><circle cx="348.5" cy="150.5" r="4.5" transform="rotate(0,348.5,150.5)"/><circle cx="348.5" cy="159.5" r="4.5" transform="rotate(0,348.5,159.5)"/><circle cx="348.5" cy="186.5" r="4.5" transform="rotate(0,348.5,186.5)"/><circle cx="348.5" cy="195.5" r="4.5" transform="rotate(0,348.5,195.5)"/><circle cx="348.5" cy="204.5" r="4.5" transform="rotate(0,348.5,204.5)"/><circle cx="348.5" cy="222.5" r="4.5" transform="rotate(0,348.5,222.5)"/><circle cx="348.5" cy="249.5" r="4.5" transform="rotate(0,348.5,249.5)"/><circle cx="348.5" cy="285.5" r="4.5" transform="rotate(0,348.5,285.5)"/><circle cx="348.5" cy="294.5" r="4.5" transform="rotate(0,348.5,294.5)"/><circle cx="348.5" cy="312.5" r="4.5" transform="rotate(0,348.5,312.5)"/><circle cx="348.5" cy="321.5" r="4.5" transform="rotate(0,348.5,321.5)"/><circle cx="348.5" cy="339.5" r="4.5" transform="rotate(0,348.5,339.5)"/><circle cx="348.5" cy="348.5" r="4.5" transform="rotate(0,348.5,348.5)"/><circle cx="348.5" cy="366.5" r="4.5" transform="rotate(0,348.5,366.5)"/><circle cx="348.5" cy="375.5" r="4.5" transform="rotate(0,348.5,375.5)"/><circle cx="348.5" cy="384.5" r="4.5" transform="rotate(0,348.5,384.5)"/><circle cx="348.5" cy="411.5" r="4.5" transform="rotate(0,348.5,411.5)"/><circle cx="348.5" cy="420.5" r="4.5" transform="rotate(0,348.5,420.5)"/><circle cx="348.5" cy="447.5" r="4.5" transform="rotate(0,348.5,447.5)"/><circle cx="348.5" cy="456.5" r="4.5" transform="rotate(0,348.5,456.5)"/><circle cx="357.5" cy="69.5" r="4.5" transform="rotate(0,357.5,69.5)"/><circle cx="357.5" cy="87.5" r="4.5" transform="rotate(0,357.5,87.5)"/><circle cx="357.5" cy="96.5" r="4.5" transform="rotate(0,357.5,96.5)"/><circle cx="357.5" cy="114.5" r="4.5" transform="rotate(0,357.5,114.5)"/><circle cx="357.5" cy="177.5" r="4.5" transform="rotate(0,357.5,177.5)"/><circle cx="357.5" cy="195.5" r="4.5" transform="rotate(0,357.5,195.5)"/><circle cx="357.5" cy="204.5" r="4.5" transform="rotate(0,357.5,204.5)"/><circle cx="357.5" cy="240.5" r="4.5" transform="rotate(0,357.5,240.5)"/><circle cx="357.5" cy="249.5" r="4.5" transform="rotate(0,357.5,249.5)"/><circle cx="357.5" cy="258.5" r="4.5" transform="rotate(0,357.5,258.5)"/><circle cx="357.5" cy="294.5" r="4.5" transform="rotate(0,357.5,294.5)"/><circle cx="357.5" cy="303.5" r="4.5" transform="rotate(0,357.5,303.5)"/><circle cx="357.5" cy="312.5" r="4.5" transform="rotate(0,357.5,312.5)"/><circle cx="357.5" cy="348.5" r="4.5" transform="rotate(0,357.5,348.5)"/><circle cx="357.5" cy="357.5" r="4.5" transform="rotate(0,357.5,357.5)"/><circle cx="357.5" cy="366.5" r="4.5" transform="rotate(0,357.5,366.5)"/><circle cx="357.5" cy="384.5" r="4.5" transform="rotate(0,357.5,384.5)"/><circle cx="357.5" cy="393.5" r="4.5" transform="rotate(0,357.5,393.5)"/><circle cx="357.5" cy="402.5" r="4.5" transform="rotate(0,357.5,402.5)"/><circle cx="357.5" cy="411.5" r="4.5" transform="rotate(0,357.5,411.5)"/><circle cx="357.5" cy="429.5" r="4.5" transform="rotate(0,357.5,429.5)"/><circle cx="357.5" cy="447.5" r="4.5" transform="rotate(0,357.5,447.5)"/><circle cx="357.5" cy="465.5" r="4.5" transform="rotate(0,357.5,465.5)"/><circle cx="366.5" cy="42.5" r="4.5" transform="rotate(0,366.5,42.5)"/><circle cx="366.5" cy="51.5" r="4.5" transform="rotate(0,366.5,51.5)"/><circle cx="366.5" cy="96.5" r="4.5" transform="rotate(0,366.5,96.5)"/><circle cx="366.5" cy="132.5" r="4.5" transform="rotate(0,366.5,132.5)"/><circle cx="366.5" cy="141.5" r="4.5" transform="rotate(0,366.5,141.5)"/><circle cx="366.5" cy="177.5" r="4.5" transform="rotate(0,366.5,177.5)"/><circle cx="366.5" cy="213.5" r="4.5" transform="rotate(0,366.5,213.5)"/><circle cx="366.5" cy="231.5" r="4.5" transform="rotate(0,366.5,231.5)"/><circle cx="366.5" cy="240.5" r="4.5" transform="rotate(0,366.5,240.5)"/><circle cx="366.5" cy="249.5" r="4.5" transform="rotate(0,366.5,249.5)"/><circle cx="366.5" cy="276.5" r="4.5" transform="rotate(0,366.5,276.5)"/><circle cx="366.5" cy="285.5" r="4.5" transform="rotate(0,366.5,285.5)"/><circle cx="366.5" cy="312.5" r="4.5" transform="rotate(0,366.5,312.5)"/><circle cx="366.5" cy="321.5" r="4.5" transform="rotate(0,366.5,321.5)"/><circle cx="366.5" cy="330.5" r="4.5" transform="rotate(0,366.5,330.5)"/><circle cx="366.5" cy="348.5" r="4.5" transform="rotate(0,366.5,348.5)"/><circle cx="366.5" cy="357.5" r="4.5" transform="rotate(0,366.5,357.5)"/><circle cx="366.5" cy="366.5" r="4.5" transform="rotate(0,366.5,366.5)"/><circle cx="366.5" cy="375.5" r="4.5" transform="rotate(0,366.5,375.5)"/><circle cx="366.5" cy="393.5" r="4.5" transform="rotate(0,366.5,393.5)"/><circle cx="366.5" cy="420.5" r="4.5" transform="rotate(0,366.5,420.5)"/><circle cx="366.5" cy="429.5" r="4.5" transform="rotate(0,366.5,429.5)"/><circle cx="366.5" cy="438.5" r="4.5" transform="rotate(0,366.5,438.5)"/><circle cx="366.5" cy="465.5" r="4.5" transform="rotate(0,366.5,465.5)"/><circle cx="375.5" cy="42.5" r="4.5" transform="rotate(0,375.5,42.5)"/><circle cx="375.5" cy="78.5" r="4.5" transform="rotate(0,375.5,78.5)"/><circle cx="375.5" cy="87.5" r="4.5" transform="rotate(0,375.5,87.5)"/><circle cx="375.5" cy="96.5" r="4.5" transform="rotate(0,375.5,96.5)"/><circle cx="375.5" cy="105.5" r="4.5" transform="rotate(0,375.5,105.5)"/><circle cx="375.5" cy="123.5" r="4.5" transform="rotate(0,375.5,123.5)"/><circle cx="375.5" cy="132.5" r="4.5" transform="rotate(0,375.5,132.5)"/><circle cx="375.5" cy="159.5" r="4.5" transform="rotate(0,375.5,159.5)"/><circle cx="375.5" cy="168.5" r="4.5" transform="rotate(0,375.5,168.5)"/><circle cx="375.5" cy="195.5" r="4.5" transform="rotate(0,375.5,195.5)"/><circle cx="375.5" cy="213.5" r="4.5" transform="rotate(0,375.5,213.5)"/><circle cx="375.5" cy="222.5" r="4.5" transform="rotate(0,375.5,222.5)"/><circle cx="375.5" cy="231.5" r="4.5" transform="rotate(0,375.5,231.5)"/><circle cx="375.5" cy="258.5" r="4.5" transform="rotate(0,375.5,258.5)"/><circle cx="375.5" cy="267.5" r="4.5" transform="rotate(0,375.5,267.5)"/><circle cx="375.5" cy="276.5" r="4.5" transform="rotate(0,375.5,276.5)"/><circle cx="375.5" cy="285.5" r="4.5" transform="rotate(0,375.5,285.5)"/><circle cx="375.5" cy="312.5" r="4.5" transform="rotate(0,375.5,312.5)"/><circle cx="375.5" cy="321.5" r="4.5" transform="rotate(0,375.5,321.5)"/><circle cx="375.5" cy="348.5" r="4.5" transform="rotate(0,375.5,348.5)"/><circle cx="375.5" cy="357.5" r="4.5" transform="rotate(0,375.5,357.5)"/><circle cx="375.5" cy="366.5" r="4.5" transform="rotate(0,375.5,366.5)"/><circle cx="375.5" cy="393.5" r="4.5" transform="rotate(0,375.5,393.5)"/><circle cx="375.5" cy="438.5" r="4.5" transform="rotate(0,375.5,438.5)"/><circle cx="375.5" cy="456.5" r="4.5" transform="rotate(0,375.5,456.5)"/><circle cx="384.5" cy="42.5" r="4.5" transform="rotate(0,384.5,42.5)"/><circle cx="384.5" cy="51.5" r="4.5" transform="rotate(0,384.5,51.5)"/><circle cx="384.5" cy="60.5" r="4.5" transform="rotate(0,384.5,60.5)"/><circle cx="384.5" cy="105.5" r="4.5" transform="rotate(0,384.5,105.5)"/><circle cx="384.5" cy="114.5" r="4.5" transform="rotate(0,384.5,114.5)"/><circle cx="384.5" cy="132.5" r="4.5" transform="rotate(0,384.5,132.5)"/><circle cx="384.5" cy="141.5" r="4.5" transform="rotate(0,384.5,141.5)"/><circle cx="384.5" cy="150.5" r="4.5" transform="rotate(0,384.5,150.5)"/><circle cx="384.5" cy="159.5" r="4.5" transform="rotate(0,384.5,159.5)"/><circle cx="384.5" cy="177.5" r="4.5" transform="rotate(0,384.5,177.5)"/><circle cx="384.5" cy="213.5" r="4.5" transform="rotate(0,384.5,213.5)"/><circle cx="384.5" cy="222.5" r="4.5" transform="rotate(0,384.5,222.5)"/><circle cx="384.5" cy="231.5" r="4.5" transform="rotate(0,384.5,231.5)"/><circle cx="384.5" cy="258.5" r="4.5" transform="rotate(0,384.5,258.5)"/><circle cx="384.5" cy="285.5" r="4.5" transform="rotate(0,384.5,285.5)"/><circle cx="384.5" cy="294.5" r="4.5" transform="rotate(0,384.5,294.5)"/><circle cx="384.5" cy="321.5" r="4.5" transform="rotate(0,384.5,321.5)"/><circle cx="384.5" cy="339.5" r="4.5" transform="rotate(0,384.5,339.5)"/><circle cx="384.5" cy="366.5" r="4.5" transform="rotate(0,384.5,366.5)"/><circle cx="384.5" cy="402.5" r="4.5" transform="rotate(0,384.5,402.5)"/><circle cx="384.5" cy="420.5" r="4.5" transform="rotate(0,384.5,420.5)"/><circle cx="384.5" cy="456.5" r="4.5" transform="rotate(0,384.5,456.5)"/><circle cx="393.5" cy="33.5" r="4.5" transform="rotate(0,393.5,33.5)"/><circle cx="393.5" cy="42.5" r="4.5" transform="rotate(0,393.5,42.5)"/><circle cx="393.5" cy="51.5" r="4.5" transform="rotate(0,393.5,51.5)"/><circle cx="393.5" cy="87.5" r="4.5" transform="rotate(0,393.5,87.5)"/><circle cx="393.5" cy="114.5" r="4.5" transform="rotate(0,393.5,114.5)"/><circle cx="393.5" cy="123.5" r="4.5" transform="rotate(0,393.5,123.5)"/><circle cx="393.5" cy="132.5" r="4.5" transform="rotate(0,393.5,132.5)"/><circle cx="393.5" cy="150.5" r="4.5" transform="rotate(0,393.5,150.5)"/><circle cx="393.5" cy="168.5" r="4.5" transform="rotate(0,393.5,168.5)"/><circle cx="393.5" cy="177.5" r="4.5" transform="rotate(0,393.5,177.5)"/><circle cx="393.5" cy="186.5" r="4.5" transform="rotate(0,393.5,186.5)"/><circle cx="393.5" cy="195.5" r="4.5" transform="rotate(0,393.5,195.5)"/><circle cx="393.5" cy="204.5" r="4.5" transform="rotate(0,393.5,204.5)"/><circle cx="393.5" cy="213.5" r="4.5" transform="rotate(0,393.5,213.5)"/><circle cx="393.5" cy="222.5" r="4.5" transform="rotate(0,393.5,222.5)"/><circle cx="393.5" cy="231.5" r="4.5" transform="rotate(0,393.5,231.5)"/><circle cx="393.5" cy="240.5" r="4.5" transform="rotate(0,393.5,240.5)"/><circle cx="393.5" cy="249.5" r="4.5" transform="rotate(0,393.5,249.5)"/><circle cx="393.5" cy="258.5" r="4.5" transform="rotate(0,393.5,258.5)"/><circle cx="393.5" cy="267.5" r="4.5" transform="rotate(0,393.5,267.5)"/><circle cx="393.5" cy="294.5" r="4.5" transform="rotate(0,393.5,294.5)"/><circle cx="393.5" cy="303.5" r="4.5" transform="rotate(0,393.5,303.5)"/><circle cx="393.5" cy="312.5" r="4.5" transform="rotate(0,393.5,312.5)"/><circle cx="393.5" cy="321.5" r="4.5" transform="rotate(0,393.5,321.5)"/><circle cx="393.5" cy="339.5" r="4.5" transform="rotate(0,393.5,339.5)"/><circle cx="393.5" cy="366.5" r="4.5" transform="rotate(0,393.5,366.5)"/><circle cx="393.5" cy="393.5" r="4.5" transform="rotate(0,393.5,393.5)"/><circle cx="393.5" cy="402.5" r="4.5" transform="rotate(0,393.5,402.5)"/><circle cx="393.5" cy="411.5" r="4.5" transform="rotate(0,393.5,411.5)"/><circle cx="393.5" cy="420.5" r="4.5" transform="rotate(0,393.5,420.5)"/><circle cx="393.5" cy="429.5" r="4.5" transform="rotate(0,393.5,429.5)"/><circle cx="393.5" cy="456.5" r="4.5" transform="rotate(0,393.5,456.5)"/><circle cx="393.5" cy="465.5" r="4.5" transform="rotate(0,393.5,465.5)"/><circle cx="402.5" cy="105.5" r="4.5" transform="rotate(0,402.5,105.5)"/><circle cx="402.5" cy="114.5" r="4.5" transform="rotate(0,402.5,114.5)"/><circle cx="402.5" cy="123.5" r="4.5" transform="rotate(0,402.5,123.5)"/><circle cx="402.5" cy="159.5" r="4.5" transform="rotate(0,402.5,159.5)"/><circle cx="402.5" cy="168.5" r="4.5" transform="rotate(0,402.5,168.5)"/><circle cx="402.5" cy="186.5" r="4.5" transform="rotate(0,402.5,186.5)"/><circle cx="402.5" cy="195.5" r="4.5" transform="rotate(0,402.5,195.5)"/><circle cx="402.5" cy="231.5" r="4.5" transform="rotate(0,402.5,231.5)"/><circle cx="402.5" cy="267.5" r="4.5" transform="rotate(0,402.5,267.5)"/><circle cx="402.5" cy="285.5" r="4.5" transform="rotate(0,402.5,285.5)"/><circle cx="402.5" cy="294.5" r="4.5" transform="rotate(0,402.5,294.5)"/><circle cx="402.5" cy="303.5" r="4.5" transform="rotate(0,402.5,303.5)"/><circle cx="402.5" cy="312.5" r="4.5" transform="rotate(0,402.5,312.5)"/><circle cx="402.5" cy="321.5" r="4.5" transform="rotate(0,402.5,321.5)"/><circle cx="402.5" cy="330.5" r="4.5" transform="rotate(0,402.5,330.5)"/><circle cx="402.5" cy="384.5" r="4.5" transform="rotate(0,402.5,384.5)"/><circle cx="402.5" cy="393.5" r="4.5" transform="rotate(0,402.5,393.5)"/><circle cx="402.5" cy="429.5" r="4.5" transform="rotate(0,402.5,429.5)"/><circle cx="402.5" cy="447.5" r="4.5" transform="rotate(0,402.5,447.5)"/><circle cx="402.5" cy="465.5" r="4.5" transform="rotate(0,402.5,465.5)"/><circle cx="411.5" cy="114.5" r="4.5" transform="rotate(0,411.5,114.5)"/><circle cx="411.5" cy="132.5" r="4.5" transform="rotate(0,411.5,132.5)"/><circle cx="411.5" cy="177.5" r="4.5" transform="rotate(0,411.5,177.5)"/><circle cx="411.5" cy="195.5" r="4.5" transform="rotate(0,411.5,195.5)"/><circle cx="411.5" cy="204.5" r="4.5" transform="rotate(0,411.5,204.5)"/><circle cx="411.5" cy="213.5" r="4.5" transform="rotate(0,411.5,213.5)"/><circle cx="411.5" cy="231.5" r="4.5" transform="rotate(0,411.5,231.5)"/><circle cx="411.5" cy="249.5" r="4.5" transform="rotate(0,411.5,249.5)"/><circle cx="411.5" cy="267.5" r="4.5" transform="rotate(0,411.5,267.5)"/><circle cx="411.5" cy="276.5" r="4.5" transform="rotate(0,411.5,276.5)"/><circle cx="411.5" cy="285.5" r="4.5" transform="rotate(0,411.5,285.5)"/><circle cx="411.5" cy="303.5" r="4.5" transform="rotate(0,411.5,303.5)"/><circle cx="411.5" cy="312.5" r="4.5" transform="rotate(0,411.5,312.5)"/><circle cx="411.5" cy="330.5" r="4.5" transform="rotate(0,411.5,330.5)"/><circle cx="411.5" cy="366.5" r="4.5" transform="rotate(0,411.5,366.5)"/><circle cx="411.5" cy="375.5" r="4.5" transform="rotate(0,411.5,375.5)"/><circle cx="411.5" cy="393.5" r="4.5" transform="rotate(0,411.5,393.5)"/><circle cx="411.5" cy="411.5" r="4.5" transform="rotate(0,411.5,411.5)"/><circle cx="411.5" cy="429.5" r="4.5" transform="rotate(0,411.5,429.5)"/><circle cx="411.5" cy="438.5" r="4.5" transform="rotate(0,411.5,438.5)"/><circle cx="411.5" cy="456.5" r="4.5" transform="rotate(0,411.5,456.5)"/><circle cx="411.5" cy="465.5" r="4.5" transform="rotate(0,411.5,465.5)"/><circle cx="420.5" cy="105.5" r="4.5" transform="rotate(0,420.5,105.5)"/><circle cx="420.5" cy="114.5" r="4.5" transform="rotate(0,420.5,114.5)"/><circle cx="420.5" cy="123.5" r="4.5" transform="rotate(0,420.5,123.5)"/><circle cx="420.5" cy="150.5" r="4.5" transform="rotate(0,420.5,150.5)"/><circle cx="420.5" cy="168.5" r="4.5" transform="rotate(0,420.5,168.5)"/><circle cx="420.5" cy="177.5" r="4.5" transform="rotate(0,420.5,177.5)"/><circle cx="420.5" cy="213.5" r="4.5" transform="rotate(0,420.5,213.5)"/><circle cx="420.5" cy="231.5" r="4.5" transform="rotate(0,420.5,231.5)"/><circle cx="420.5" cy="267.5" r="4.5" transform="rotate(0,420.5,267.5)"/><circle cx="420.5" cy="285.5" r="4.5" transform="rotate(0,420.5,285.5)"/><circle cx="420.5" cy="303.5" r="4.5" transform="rotate(0,420.5,303.5)"/><circle cx="420.5" cy="312.5" r="4.5" transform="rotate(0,420.5,312.5)"/><circle cx="420.5" cy="348.5" r="4.5" transform="rotate(0,420.5,348.5)"/><circle cx="420.5" cy="357.5" r="4.5" transform="rotate(0,420.5,357.5)"/><circle cx="420.5" cy="375.5" r="4.5" transform="rotate(0,420.5,375.5)"/><circle cx="420.5" cy="384.5" r="4.5" transform="rotate(0,420.5,384.5)"/><circle cx="420.5" cy="393.5" r="4.5" transform="rotate(0,420.5,393.5)"/><circle cx="420.5" cy="429.5" r="4.5" transform="rotate(0,420.5,429.5)"/><circle cx="420.5" cy="438.5" r="4.5" transform="rotate(0,420.5,438.5)"/><circle cx="429.5" cy="114.5" r="4.5" transform="rotate(0,429.5,114.5)"/><circle cx="429.5" cy="141.5" r="4.5" transform="rotate(0,429.5,141.5)"/><circle cx="429.5" cy="168.5" r="4.5" transform="rotate(0,429.5,168.5)"/><circle cx="429.5" cy="186.5" r="4.5" transform="rotate(0,429.5,186.5)"/><circle cx="429.5" cy="195.5" r="4.5" transform="rotate(0,429.5,195.5)"/><circle cx="429.5" cy="231.5" r="4.5" transform="rotate(0,429.5,231.5)"/><circle cx="429.5" cy="240.5" r="4.5" transform="rotate(0,429.5,240.5)"/><circle cx="429.5" cy="249.5" r="4.5" transform="rotate(0,429.5,249.5)"/><circle cx="429.5" cy="258.5" r="4.5" transform="rotate(0,429.5,258.5)"/><circle cx="429.5" cy="267.5" r="4.5" transform="rotate(0,429.5,267.5)"/><circle cx="429.5" cy="276.5" r="4.5" transform="rotate(0,429.5,276.5)"/><circle cx="429.5" cy="285.5" r="4.5" transform="rotate(0,429.5,285.5)"/><circle cx="429.5" cy="303.5" r="4.5" transform="rotate(0,429.5,303.5)"/><circle cx="429.5" cy="312.5" r="4.5" transform="rotate(0,429.5,312.5)"/><circle cx="429.5" cy="330.5" r="4.5" transform="rotate(0,429.5,330.5)"/><circle cx="429.5" cy="339.5" r="4.5" transform="rotate(0,429.5,339.5)"/><circle cx="429.5" cy="348.5" r="4.5" transform="rotate(0,429.5,348.5)"/><circle cx="429.5" cy="384.5" r="4.5" transform="rotate(0,429.5,384.5)"/><circle cx="429.5" cy="393.5" r="4.5" transform="rotate(0,429.5,393.5)"/><circle cx="429.5" cy="402.5" r="4.5" transform="rotate(0,429.5,402.5)"/><circle cx="429.5" cy="411.5" r="4.5" transform="rotate(0,429.5,411.5)"/><circle cx="429.5" cy="420.5" r="4.5" transform="rotate(0,429.5,420.5)"/><circle cx="429.5" cy="429.5" r="4.5" transform="rotate(0,429.5,429.5)"/><circle cx="438.5" cy="105.5" r="4.5" transform="rotate(0,438.5,105.5)"/><circle cx="438.5" cy="132.5" r="4.5" transform="rotate(0,438.5,132.5)"/><circle cx="438.5" cy="141.5" r="4.5" transform="rotate(0,438.5,141.5)"/><circle cx="438.5" cy="150.5" r="4.5" transform="rotate(0,438.5,150.5)"/><circle cx="438.5" cy="186.5" r="4.5" transform="rotate(0,438.5,186.5)"/><circle cx="438.5" cy="195.5" r="4.5" transform="rotate(0,438.5,195.5)"/><circle cx="438.5" cy="240.5" r="4.5" transform="rotate(0,438.5,240.5)"/><circle cx="438.5" cy="249.5" r="4.5" transform="rotate(0,438.5,249.5)"/><circle cx="438.5" cy="258.5" r="4.5" transform="rotate(0,438.5,258.5)"/><circle cx="438.5" cy="276.5" r="4.5" transform="rotate(0,438.5,276.5)"/><circle cx="438.5" cy="294.5" r="4.5" transform="rotate(0,438.5,294.5)"/><circle cx="438.5" cy="303.5" r="4.5" transform="rotate(0,438.5,303.5)"/><circle cx="438.5" cy="312.5" r="4.5" transform="rotate(0,438.5,312.5)"/><circle cx="438.5" cy="330.5" r="4.5" transform="rotate(0,438.5,330.5)"/><circle cx="438.5" cy="357.5" r="4.5" transform="rotate(0,438.5,357.5)"/><circle cx="438.5" cy="366.5" r="4.5" transform="rotate(0,438.5,366.5)"/><circle cx="438.5" cy="384.5" r="4.5" transform="rotate(0,438.5,384.5)"/><circle cx="438.5" cy="393.5" r="4.5" transform="rotate(0,438.5,393.5)"/><circle cx="438.5" cy="411.5" r="4.5" transform="rotate(0,438.5,411.5)"/><circle cx="438.5" cy="429.5" r="4.5" transform="rotate(0,438.5,429.5)"/><circle cx="438.5" cy="438.5" r="4.5" transform="rotate(0,438.5,438.5)"/><circle cx="438.5" cy="447.5" r="4.5" transform="rotate(0,438.5,447.5)"/><circle cx="447.5" cy="105.5" r="4.5" transform="rotate(0,447.5,105.5)"/><circle cx="447.5" cy="114.5" r="4.5" transform="rotate(0,447.5,114.5)"/><circle cx="447.5" cy="123.5" r="4.5" transform="rotate(0,447.5,123.5)"/><circle cx="447.5" cy="141.5" r="4.5" transform="rotate(0,447.5,141.5)"/><circle cx="447.5" cy="159.5" r="4.5" transform="rotate(0,447.5,159.5)"/><circle cx="447.5" cy="186.5" r="4.5" transform="rotate(0,447.5,186.5)"/><circle cx="447.5" cy="204.5" r="4.5" transform="rotate(0,447.5,204.5)"/><circle cx="447.5" cy="222.5" r="4.5" transform="rotate(0,447.5,222.5)"/><circle cx="447.5" cy="231.5" r="4.5" transform="rotate(0,447.5,231.5)"/><circle cx="447.5" cy="240.5" r="4.5" transform="rotate(0,447.5,240.5)"/><circle cx="447.5" cy="258.5" r="4.5" transform="rotate(0,447.5,258.5)"/><circle cx="447.5" cy="267.5" r="4.5" transform="rotate(0,447.5,267.5)"/><circle cx="447.5" cy="285.5" r="4.5" transform="rotate(0,447.5,285.5)"/><circle cx="447.5" cy="294.5" r="4.5" transform="rotate(0,447.5,294.5)"/><circle cx="447.5" cy="303.5" r="4.5" transform="rotate(0,447.5,303.5)"/><circle cx="447.5" cy="312.5" r="4.5" transform="rotate(0,447.5,312.5)"/><circle cx="447.5" cy="321.5" r="4.5" transform="rotate(0,447.5,321.5)"/><circle cx="447.5" cy="330.5" r="4.5" transform="rotate(0,447.5,330.5)"/><circle cx="447.5" cy="339.5" r="4.5" transform="rotate(0,447.5,339.5)"/><circle cx="447.5" cy="366.5" r="4.5" transform="rotate(0,447.5,366.5)"/><circle cx="447.5" cy="384.5" r="4.5" transform="rotate(0,447.5,384.5)"/><circle cx="447.5" cy="411.5" r="4.5" transform="rotate(0,447.5,411.5)"/><circle cx="447.5" cy="429.5" r="4.5" transform="rotate(0,447.5,429.5)"/><circle cx="456.5" cy="105.5" r="4.5" transform="rotate(0,456.5,105.5)"/><circle cx="456.5" cy="114.5" r="4.5" transform="rotate(0,456.5,114.5)"/><circle cx="456.5" cy="132.5" r="4.5" transform="rotate(0,456.5,132.5)"/><circle cx="456.5" cy="141.5" r="4.5" transform="rotate(0,456.5,141.5)"/><circle cx="456.5" cy="159.5" r="4.5" transform="rotate(0,456.5,159.5)"/><circle cx="456.5" cy="168.5" r="4.5" transform="rotate(0,456.5,168.5)"/><circle cx="456.5" cy="186.5" r="4.5" transform="rotate(0,456.5,186.5)"/><circle cx="456.5" cy="204.5" r="4.5" transform="rotate(0,456.5,204.5)"/><circle cx="456.5" cy="213.5" r="4.5" transform="rotate(0,456.5,213.5)"/><circle cx="456.5" cy="222.5" r="4.5" transform="rotate(0,456.5,222.5)"/><circle cx="456.5" cy="249.5" r="4.5" transform="rotate(0,456.5,249.5)"/><circle cx="456.5" cy="267.5" r="4.5" transform="rotate(0,456.5,267.5)"/><circle cx="456.5" cy="294.5" r="4.5" transform="rotate(0,456.5,294.5)"/><circle cx="456.5" cy="303.5" r="4.5" transform="rotate(0,456.5,303.5)"/><circle cx="456.5" cy="321.5" r="4.5" transform="rotate(0,456.5,321.5)"/><circle cx="456.5" cy="330.5" r="4.5" transform="rotate(0,456.5,330.5)"/><circle cx="456.5" cy="339.5" r="4.5" transform="rotate(0,456.5,339.5)"/><circle cx="456.5" cy="357.5" r="4.5" transform="rotate(0,456.5,357.5)"/><circle cx="456.5" cy="366.5" r="4.5" transform="rotate(0,456.5,366.5)"/><circle cx="456.5" cy="384.5" r="4.5" transform="rotate(0,456.5,384.5)"/><circle cx="456.5" cy="393.5" r="4.5" transform="rotate(0,456.5,393.5)"/><circle cx="456.5" cy="402.5" r="4.5" transform="rotate(0,456.5,402.5)"/><circle cx="456.5" cy="438.5" r="4.5" transform="rotate(0,456.5,438.5)"/><circle cx="456.5" cy="447.5" r="4.5" transform="rotate(0,456.5,447.5)"/><circle cx="465.5" cy="123.5" r="4.5" transform="rotate(0,465.5,123.5)"/><circle cx="465.5" cy="132.5" r="4.5" transform="rotate(0,465.5,132.5)"/><circle cx="465.5" cy="177.5" r="4.5" transform="rotate(0,465.5,177.5)"/><circle cx="465.5" cy="195.5" r="4.5" transform="rotate(0,465.5,195.5)"/><circle cx="465.5" cy="204.5" r="4.5" transform="rotate(0,465.5,204.5)"/><circle cx="465.5" cy="222.5" r="4.5" transform="rotate(0,465.5,222.5)"/><circle cx="465.5" cy="231.5" r="4.5" transform="rotate(0,465.5,231.5)"/><circle cx="465.5" cy="240.5" r="4.5" transform="rotate(0,465.5,240.5)"/><circle cx="465.5" cy="258.5" r="4.5" transform="rotate(0,465.5,258.5)"/><circle cx="465.5" cy="294.5" r="4.5" transform="rotate(0,465.5,294.5)"/><circle cx="465.5" cy="330.5" r="4.5" transform="rotate(0,465.5,330.5)"/><circle cx="465.5" cy="348.5" r="4.5" transform="rotate(0,465.5,348.5)"/><circle cx="465.5" cy="357.5" r="4.5" transform="rotate(0,465.5,357.5)"/><circle cx="465.5" cy="366.5" r="4.5" transform="rotate(0,465.5,366.5)"/><circle cx="465.5" cy="384.5" r="4.5" transform="rotate(0,465.5,384.5)"/><circle cx="465.5" cy="402.5" r="4.5" transform="rotate(0,465.5,402.5)"/><circle cx="465.5" cy="429.5" r="4.5" transform="rotate(0,465.5,429.5)"/><circle cx="465.5" cy="438.5" r="4.5" transform="rotate(0,465.5,438.5)"/><circle cx="465.5" cy="447.5" r="4.5" transform="rotate(0,465.5,447.5)"/><circle cx="465.5" cy="456.5" r="4.5" transform="rotate(0,465.5,456.5)"/><circle cx="465.5" cy="465.5" r="4.5" transform="rotate(0,465.5,465.5)"/></clipPath><clipPath id="clip-path-corners-square-color-0-0"><path clip-rule="evenodd" d="M 29 51.5v 18a 22.5 22.5, 0, 0, 0, 22.5 22.5h 18a 22.5 22.5, 0, 0, 0, 22.5 -22.5v -18a 22.5 22.5, 0, 0, 0, -22.5 -22.5h -18a 22.5 22.5, 0, 0, 0, -22.5 22.5M 51.5 38h 18a 13.5 13.5, 0, 0, 1, 13.5 13.5v 18a 13.5 13.5, 0, 0, 1, -13.5 13.5h -18a 13.5 13.5, 0, 0, 1, -13.5 -13.5v -18a 13.5 13.5, 0, 0, 1, 13.5 -13.5" transform="rotate(0,60.5,60.5)"/></clipPath><clipPath id="clip-path-corners-dot-color-0-0"><circle cx="60.5" cy="60.5" r="13.5" transform="rotate(0,60.5,60.5)"/></clipPath><clipPath id="clip-path-corners-square-color-1-0"><path clip-rule="evenodd" d="M 407 51.5v 18a 22.5 22.5, 0, 0, 0, 22.5 22.5h 18a 22.5 22.5, 0, 0, 0, 22.5 -22.5v -18a 22.5 22.5, 0, 0, 0, -22.5 -22.5h -18a 22.5 22.5, 0, 0, 0, -22.5 22.5M 429.5 38h 18a 13.5 13.5, 0, 0, 1, 13.5 13.5v 18a 13.5 13.5, 0, 0, 1, -13.5 13.5h -18a 13.5 13.5, 0, 0, 1, -13.5 -13.5v -18a 13.5 13.5, 0, 0, 1, 13.5 -13.5" transform="rotate(90,438.5,60.5)"/></clipPath><clipPath id="clip-path-corners-dot-color-1-0"><circle cx="438.5" cy="60.5" r="13.5" transform="rotate(90,438.5,60.5)"/></clipPath><clipPath id="clip-path-corners-square-color-0-1"><path clip-rule="evenodd" d="M 29 429.5v 18a 22.5 22.5, 0, 0, 0, 22.5 22.5h 18a 22.5 22.5, 0, 0, 0, 22.5 -22.5v -18a 22.5 22.5, 0, 0, 0, -22.5 -22.5h -18a 22.5 22.5, 0, 0, 0, -22.5 22.5M 51.5 416h 18a 13.5 13.5, 0, 0, 1, 13.5 13.5v 18a 13.5 13.5, 0, 0, 1, -13.5 13.5h -18a 13.5 13.5, 0, 0, 1, -13.5 -13.5v -18a 13.5 13.5, 0, 0, 1, 13.5 -13.5" transform="rotate(-90,60.5,438.5)"/></clipPath><clipPath id="clip-path-corners-dot-color-0-1"><circle cx="60.5" cy="438.5" r="13.5" transform="rotate(-90,60.5,438.5)"/></clipPath></defs><rect x="0" y="0" height="500" width="500" clip-path="url('#clip-path-background-color')" fill="#fff"/><rect x="0" y="0" height="500" width="500" clip-path="url('#clip-path-dot-color')" fill="#000000"/><rect x="29" y="29" height="63" width="63" clip-path="url('#clip-path-corners-square-color-0-0')" fill="#000000"/><rect x="47" y="47" height="27" width="27" clip-path="url('#clip-path-corners-dot-color-0-0')" fill="#000000"/><rect x="407" y="29" height="63" width="63" clip-path="url('#clip-path-corners-square-color-1-0')" fill="#000000"/><rect x="425" y="47" height="27" width="27" clip-path="url('#clip-path-corners-dot-color-1-0')" fill="#000000"/><rect x="29" y="407" height="63" width="63" clip-path="url('#clip-path-corners-square-color-0-1')" fill="#000000"/><rect x="47" y="425" height="27" width="27" clip-path="url('#clip-path-corners-dot-color-0-1')" fill="#000000"/></svg>